<svg xmlns="http://www.w3.org/2000/svg" width="40" height="40" fill="none"><rect width="40" height="40" rx="20" fill="url(#a)"/><rect width="40" height="40" rx="20" fill="url(#b)" fill-opacity=".9"/><path d="M10.97 17.093h.88c.077 0 .138.061.138.14v6.585c0 .095.078.172.173.172h1.72a.173.173 0 0 0 .173-.172v-7.705a.843.843 0 0 0-.84-.84h-2.239a.174.174 0 0 0-.172.172v1.481c0 .09.072.167.167.167ZM19.81 17.894l-1.403 3.736c-.005.016-.016.022-.033.022s-.028-.011-.033-.022l-1.442-3.747a.84.84 0 0 0-.785-.54h-1.32c-.122 0-.2.123-.16.234l2.454 6.302a.17.17 0 0 0 .162.105h2.07a.17.17 0 0 0 .156-.105l2.572-6.302a.17.17 0 0 0-.156-.234h-1.297a.855.855 0 0 0-.785.551ZM33.46 17.667l-1.888 2.365c-.011.012-.028.023-.044.023a.024.024 0 0 1-.023-.023v-4.62a.138.138 0 0 0-.139-.14h-1.703a.138.138 0 0 0-.14.14v8.44c0 .077.062.138.14.138h1.703c.078 0 .14-.06.14-.139v-2.755c0-.011.01-.023.021-.023a.03.03 0 0 1 .028.017l1.865 2.56a.839.839 0 0 0 .68.346h1.736a.11.11 0 0 0 .09-.178l-2.344-3.184c-.04-.05-.034-.123.005-.173l2.388-2.917c.061-.072.006-.184-.089-.184H34.11a.803.803 0 0 0-.65.307ZM25.293 17.127c-1.993 0-3.607 1.52-3.607 3.54s1.614 3.54 3.607 3.54c1.453 0 2.7-.807 3.273-2.032a.171.171 0 0 0-.156-.245h-1.809c-.05 0-.1.023-.134.062-.256.317-.729.473-1.18.473-.78 0-1.358-.462-1.603-1.113h4.671a.537.537 0 0 0 .534-.507c.006-.061.005-.122.005-.19.012-1.998-1.608-3.529-3.601-3.529Zm-1.52 2.844c-.039 0-.067-.039-.056-.078a1.65 1.65 0 0 1 1.57-1.035c.785 0 1.409.4 1.592 1.04.011.034-.016.073-.055.073h-3.05ZM10.33 17.689c0-1.375-.975-2.694-3.146-2.689-2.922 0-3.156 2.305-3.162 2.962 0 .094.078.172.173.172H5.92a.168.168 0 0 0 .167-.145c.05-.345.256-1.174 1.08-1.174.812 0 1.08.545 1.08.957 0 .574-.218.874-1.448 2.032l-2.02 1.793A2.302 2.302 0 0 0 4 23.322v.473c0 .095.078.173.173.173h5.355a.79.79 0 0 0 .79-.79V22.17a.138.138 0 0 0-.139-.14H7.24c-.05 0-.077-.066-.033-.1l1.153-.968c1.085-.99 1.97-1.92 1.97-3.273Z" fill="#fff"/><defs><radialGradient id="b" cx="0" cy="0" r="1" gradientUnits="userSpaceOnUse" gradientTransform="matrix(0 32.9102 -43.0111 0 25.488 12.227)"><stop stop-color="#FF9534"/><stop offset="1" stop-color="#F20061" stop-opacity=".2"/></radialGradient><linearGradient id="a" x1="-1.841" y1="24.142" x2="41.099" y2="23.834" gradientUnits="userSpaceOnUse"><stop stop-color="#B300B3"/><stop offset=".287" stop-color="#D4009A"/><stop offset=".552" stop-color="#F2007A"/><stop offset="1" stop-color="#F06"/></linearGradient></defs></svg>