<svg xmlns="http://www.w3.org/2000/svg" width="24" height="24" viewBox="0 0 24 24" fill="none"><path fill="currentColor" fill-rule="evenodd" clip-rule="evenodd" d="M12 2C6.47715 2 2 6.47715 2 12C2 17.5228 6.47715 22 12 22C17.5228 22 22 17.5228 22 12C22 6.47715 17.5228 2 12 2ZM7 12.832L11.9426 8L15.8155 8.33196L16.1475 12.2049L11.2049 17L7 12.832ZM14.0701 11.3578C13.7099 11.7179 13.1261 11.7179 12.766 11.3578C12.4059 10.9977 12.4059 10.4138 12.766 10.0537C13.1261 9.69357 13.7099 9.69357 14.0701 10.0537C14.4302 10.4138 14.4302 10.9977 14.0701 11.3578Z"></path></svg>