<svg xmlns="http://www.w3.org/2000/svg" width="24" height="24" viewBox="0 0 24 24" fill="none"><path fill-rule="evenodd" clip-rule="evenodd" d="M9.48785 10.4098C9.48785 8.77195 10.8391 7.43942 12.5 7.43942C14.161 7.43942 15.5122 8.77195 15.5122 10.4098C15.5122 12.0477 14.1609 13.3802 12.5 13.3802C10.8391 13.3802 9.48785 12.0477 9.48785 10.4098ZM10.7561 10.4098C10.7561 11.3581 11.5384 12.1295 12.5 12.1295C13.4616 12.1295 14.2439 11.3581 14.2439 10.4098C14.2439 9.46157 13.4616 8.6901 12.5 8.6901C11.5384 8.6901 10.7561 9.46157 10.7561 10.4098Z" fill="currentColor"></path><path fill-rule="evenodd" clip-rule="evenodd" d="M6 10.4098C6 6.87547 8.91588 4 12.5 4C16.0841 4 19 6.87547 19 10.4099V10.5871C19 12.3746 17.9607 14.4575 15.9111 16.7781C15.861 16.8348 15.8091 16.8936 15.7558 16.9541C14.705 18.1456 13.0695 20 12.5 20C12.0844 20 10.1262 17.9525 9.08891 16.7781C7.03923 14.4575 6 12.3745 6 10.587V10.4098ZM12.5 18.3746C13.7848 17.2646 17.7317 13.6078 17.7317 10.5871V10.4099C17.7317 7.56512 15.3848 5.25072 12.5 5.25072C9.61524 5.25072 7.26828 7.56512 7.26828 10.4099V10.5871C7.26828 13.6076 11.2149 17.2642 12.5 18.3746Z" fill="currentColor"></path><path fill-rule="evenodd" clip-rule="evenodd" d="M9.48785 10.4098C9.48785 8.77195 10.8391 7.43942 12.5 7.43942C14.161 7.43942 15.5122 8.77195 15.5122 10.4098C15.5122 12.0477 14.1609 13.3802 12.5 13.3802C10.8391 13.3802 9.48785 12.0477 9.48785 10.4098ZM10.7561 10.4098C10.7561 11.3581 11.5384 12.1295 12.5 12.1295C13.4616 12.1295 14.2439 11.3581 14.2439 10.4098C14.2439 9.46157 13.4616 8.6901 12.5 8.6901C11.5384 8.6901 10.7561 9.46157 10.7561 10.4098Z" stroke="currentColor" stroke-width="0.2"></path><path fill-rule="evenodd" clip-rule="evenodd" d="M6 10.4098C6 6.87547 8.91588 4 12.5 4C16.0841 4 19 6.87547 19 10.4099V10.5871C19 12.3746 17.9607 14.4575 15.9111 16.7781C15.861 16.8348 15.8091 16.8936 15.7558 16.9541C14.705 18.1456 13.0695 20 12.5 20C12.0844 20 10.1262 17.9525 9.08891 16.7781C7.03923 14.4575 6 12.3745 6 10.587V10.4098ZM12.5 18.3746C13.7848 17.2646 17.7317 13.6078 17.7317 10.5871V10.4099C17.7317 7.56512 15.3848 5.25072 12.5 5.25072C9.61524 5.25072 7.26828 7.56512 7.26828 10.4099V10.5871C7.26828 13.6076 11.2149 17.2642 12.5 18.3746Z" stroke="currentColor" stroke-width="0.2"></path></svg>