<svg xmlns="http://www.w3.org/2000/svg" viewBox="0 0 24 24" width="24" height="24" fill="none" data-testid="byRegionIcon" class=""><path fill="#6EA504" d="M4 14h16v4H4z"></path><path fill="#F1444D" d="M4 6h16v8H4z"></path><path fill="#fff" d="M4 6h3v12H4z"></path><path d="M4.321 17.78h.13v-.33h-.13v.33Zm1.042 0h.13v-.33h-.13v.33Zm1.043 0h.13v-.33h-.13v.33Zm-1.563-.886h.13v-.275h-.13v.275Zm1.043 0h.13v-.275h-.13v.275Zm-1.565-.718h.13v-.33h-.13v.33Zm1.042 0h.13v-.33h-.13v.33Zm1.043 0h.13v-.33h-.13v.33Zm-1.823.443h.13v-.278h.13v-.276h.13v.276h.13v.277h.13v.276h-.13v.278h-.13v.277h-.13v-.277h-.13v-.278h-.13v-.275Zm1.042 0h.13v-.278h.13v-.276h.13v.276h.13v.277h.131v.276h-.13v.278h-.13v.277h-.13v-.277h-.13v-.278h-.13v-.275Zm.26-1.107v.276h-.13v.277h-.13v.276h-.131v.277h-.13v-.277h-.131v-.276h-.13v-.277h-.13v-.276h-.13v.276h-.13v.277h-.13v.276h-.131v.277h-.13v.276h.13v.278h.131v.277h.13v.276h.13V18h.13v-.275h.13v-.276h.13v-.277h.13v-.278h.13v.278h.132v.277h.13v.276h.13V18h.13v-.275h.13v-.276h.131v-.277h.13v-.278h.13v-.275h-.13v-.278h-.13v-.276h-.13v-.277h-.13v-.276h-.13Zm.323-.275h.065v-.11h.066v.11h.066v.11h-.066v.113h-.066v-.113h-.065v-.11Zm0-.386v.163h-.064v.168H6.08v.22h.065v.165h.064v.166h.197v-.166h.065v-.165h.064v-.22H6.47v-.168h-.065v-.162h-.197Zm-1.756.384h.065v-.11h.066v.11h.064v.112h-.064v.11h-.066v-.11h-.065v-.112Zm0-.386v.165h-.065v.166H4.32v.222h.066v.165h.065v.165h.195v-.165h.065v-.165h.064v-.222h-.064v-.166h-.065v-.165h-.195Zm.716.386h.065v-.11h.066v.11h.064v.112H5.3v.11h-.066v-.11h-.065v-.112Zm.326 0h.066v-.11h.065v.11h.064v.112h-.064v.11H5.56v-.11h-.066v-.112Zm0-.386v.165h-.13v-.165h-.196v.165h-.065v.166h-.065v.222h.065v.165h.065v.165h.195v-.165h.13v.165h.196v-.165h.067v-.165h.063v-.222h-.063v-.166h-.067v-.165h-.195Zm-1.173-.112h.13v-.33h-.13v.33Zm1.042 0h.13v-.33h-.13v.33Zm1.043 0h.13v-.33h-.13v.33Zm-2.085-1.382h.13v-.22h-.13v.22Zm2.085 0h.13v-.22h-.13v.22Zm-1.043-.773h.13v-.276h-.13v.276Zm-1.042-.747v.332h.13v-.332h-.13Zm.717 0v.332h.13v-.332h-.13Zm.651 0v.332h.13v-.332h-.13Zm.717 0v.332h.13v-.332h-.13Zm-.846-.194v.11h-.066v.084h-.13v-.084h-.065v-.11h-.13v.165h.064v.084h.066v.22h-.066v.084h-.065v.165H5.3v-.11h.064v-.081h.13v.081h.067v.11h.13v-.165h-.065v-.084H5.56v-.22h.065v-.084h.064v-.165h-.13Zm-.197.055h.13v-.275h-.13v.275Zm-1.042-.829h.13v-.22h-.13v.22Zm2.085 0h.13v-.22h-.13v.22Zm-2.085-1.27h.13v-.334h-.13v.333Zm1.042 0h.13v-.334h-.13v.333Zm1.043 0h.13v-.334h-.13v.333Zm-1.563 2.408v-.115h.13v-.192h.13v-.222H5.3v-.261h.064v-.127h.131v.124h.066v.264h.196v.222h.13v.192h.13v.22h-.13v.196h-.13v.22H5.56v.262h-.066v.124h-.131v-.124H5.3v-.261h-.196v-.22h-.13v-.197h-.13v-.105ZM5.886 8.93v.277h-.132v.276h-.129v.277h-.131v.276h-.13V9.76h-.131v-.277h-.13v-.276h-.13v-.277h-.13v.277h-.13v.276h-.131v.277h-.13v.276h-.13v.277h.13v.278h.13v.275h.13v.276h.131v-.276h.13v-.275h.13v-.278h-.13v-.332h.13v.222h.13v.443h.066v.273l-.195.002v.22h-.132v.166h-.129v.278h-.13v-.278h-.131v-.165h-.13v-.165h-.13v.498h.13v.222h.13v.192h.13v.22h-.13v.196h-.13v.22h-.13v.499h.13v-.168h.13v-.165h.13v-.275h.131v.275h.13v.165h.13v.223l.196.002v.273h-.066v.443h-.13v.223h-.13v-.336h.13v-.275h-.13v-.275h-.13v-.278h-.13v.278h-.131v.275h-.13v.275h-.13v.278h.13v.276h.131v.277h.13v.278h.13v.275h.13v-.275h.13v-.278h.13v-.277h.13v-.276h.13v.276h.132v.277h.13v.278h.13v.275h.13v-.275h.13v-.278h.131v-.277h.13v-.276h.13v-.277h-.13v-.276h-.13v-.275h-.13v-.278h-.13v.278h-.13v.275h-.132v.275h.132v.336h-.132v-.223h-.129v-.443H5.56v-.275h.196v-.223h.13v-.165h.13v-.275h.13v.275h.13v.165h.13v.168h.13v-.498h-.13v-.22h-.13v-.197h-.13v-.22h.13v-.192h.13v-.222h.13v-.498h-.13v.165h-.13v.165h-.13v.278h-.13v-.278h-.13v-.165h-.13v-.22H5.56v-.276h.065v-.443h.13v-.222h.13v.332h-.13v.278h.13v.275h.13v.276h.13v-.276h.131v-.275h.13v-.278h.13v-.277h-.13V9.76h-.13v-.277h-.13v-.276h-.13v-.277h-.13Zm-1.434-.276h.064v-.11h.067v.11h.064v.11h-.064v.113h-.067v-.113h-.064v-.11Zm0-.222h-.065V8.6H4.32v.22h.066v.168h.065v.165h.195v-.165h.065V8.82h.064V8.6h-.064v-.167h-.065V8.27h-.195v.163Zm.716.222h.065v-.11h.066v.11h.064v.11H5.3v.113h-.066v-.113h-.065v-.11Zm.326 0h.066v-.11h.065v.11h.064v.11h-.064v.113H5.56v-.113h-.066v-.11Zm-.326-.222h-.065V8.6h-.065v.22h.065v.168h.065v.165h.195v-.165h.13v.165h.196v-.165h.067V8.82h.063V8.6h-.063v-.167h-.067V8.27h-.195v.163h-.13V8.27h-.196v.163Zm1.04.22h.065v-.108h.066v.108h.066v.112h-.066v.11h-.066v-.11h-.065v-.112Zm0-.386v.166h-.064V8.6H6.08v.22h.065v.166h.064v.165h.197v-.165h.065V8.82h.064V8.6H6.47v-.167h-.065v-.166h-.197Zm-1.887-.11h.13v-.33h-.13v.33Zm1.042 0h.13v-.33h-.13v.33Zm1.043 0h.13v-.33h-.13v.33Zm-1.563-.773h.13v-.278h-.13v.278Zm1.043 0h.13v-.278h-.13v.278Zm-1.565-.83h.13v-.331h-.13v.33Zm1.042 0h.13v-.331h-.13v.33Zm1.043 0h.13v-.331h-.13v.33Zm-1.823.552h.13v-.275h.13v-.278h.13v.278h.13v.275h.13v.278h-.13v.275h-.13v.278h-.13v-.278h-.13v-.275h-.13v-.278Zm1.042 0h.13v-.275h.13v-.278h.13v.278h.13v.275h.131v.278h-.13v.275h-.13v.278h-.13v-.278h-.13v-.275h-.13v-.278ZM5.885 6v.278h-.13v.275h-.13v.278h-.131v.275h-.13v-.275h-.131v-.278h-.13v-.275h-.13V6h-.13v.278h-.13v.275h-.13v.278h-.131v.275h-.13v.278h.13v.275h.131v.278h.13v.278h.13v.275h.13v-.275h.13v-.278h.13v-.278h.13v-.275h.13v.275h.132v.278h.13v.278h.13v.275h.13v-.275h.13v-.278h.131v-.278h.13v-.275h.13v-.278h-.13v-.275h-.13v-.278h-.13v-.275h-.13V6h-.13Z" fill="#FF4B55"></path></svg>