<svg xmlns="http://www.w3.org/2000/svg" viewBox="0 0 24 24" width="24" height="24" fill="none" data-testid="icon" class=""><path xmlns="http://www.w3.org/2000/svg" fill-rule="evenodd" clip-rule="evenodd" d="M10 4.25C9.58578 4.25 9.25 4.58579 9.25 5V7.25001H7.5056L7.5 7.24999L7.4944 7.25001H6C5.58579 7.25001 5.25 7.58579 5.25 8.00001C5.25 8.41422 5.58579 8.75001 6 8.75001H6.75V17.4C6.75 18.3665 7.5335 19.15 8.5 19.15L15.5 19.1501C16.4665 19.1501 17.25 18.3666 17.25 17.4001V8.75001H18C18.4142 8.75001 18.75 8.41422 18.75 8.00001C18.75 7.58579 18.4142 7.25001 18 7.25001H16.5028L16.5 7.25L16.4972 7.25001H15.25V5C15.25 4.58579 14.9142 4.25 14.5 4.25H10ZM13.75 7.25001V5.75H10.75V7.25001H13.75ZM8.25 17.4V8.75001H15.75V17.4001C15.75 17.5381 15.6381 17.6501 15.5 17.6501L8.5 17.65C8.36193 17.65 8.25 17.5381 8.25 17.4Z" fill="currentColor"></path></svg>