<svg width="22" height="29" fill="none" xmlns="http://www.w3.org/2000/svg"><path d="m21 11 .5 18h-19L1 12l20-1Z" fill="#FFB1B3"/><path d="M17 11.2 4 29h3.25L20.5 11l-3.5.2ZM21.2 17.5 11.5 29h3.43l6.37-7.5-.1-4ZM21.5 26.5 19 29h2.5v-2.5ZM13 11.4 2.21 25.96l-.33-4.1L9.5 11.6l3.5-.2ZM6 11.7 1.4 17l-.2-3L3 11.9l3-.2Z" fill="#07C"/><path d="M21.5 6.2v4.02L.5 11.5 0 8.35 21.5 6.2Z" fill="#FFB1B3"/><path opacity=".3" d="m12 10.8-.5-3.6 1.8-.2.2 3.7-1.5.1Z" fill="#1A1A1A"/><path d="M10.57 8.16s.47-9.4 4.2-7.53c3.73 1.87-4.2 7.53-4.2 7.53Z" fill="#FFC43D"/><path d="M10.57 8.16C10.6 8.02 10.5.5 7.5 2s3.07 6.16 3.07 6.16Z" fill="#FFC43D"/><path opacity=".3" d="M12 29V13h1.5l.5 16h-2ZM21 11l.1 2h-20L1 12l20-1Z" fill="#1A1A1A"/><path d="m8.48 7.51.65 3.59 3.95-.3V6.9l-4.6.6ZM9.5 11.6 10 29h3.38L13 11.4l-3.5.2Z" fill="#FFC43D"/></svg>