<svg xmlns="http://www.w3.org/2000/svg" width="24" height="24" viewBox="0 0 24 24" fill="none"><path fill="currentColor" fill-rule="evenodd" d="M2.1 4.3c0-.44.36-.8.8-.8h3.03l.86 1.81h12.28c.6 0 1 .66.7 1.19l-2.97 5.88a1.7 1.7 0 0 1-1.49.87h-5.9l-.67 1.12h8.79a.8.8 0 1 1 0 1.6H8.47c-.66 0-1.13-.25-1.35-.63-.23-.37-.23-.9.09-1.48l1.02-1.77L4.92 5.1H2.9a.8.8 0 0 1-.8-.8Zm15.6 2.61H7.55l2.24 4.74h5.59l2.32-4.74Zm-9.12 12.1a1.48 1.48 0 1 1 2.96 0 1.48 1.48 0 0 1-2.96 0Zm5.43 0a1.48 1.48 0 1 1 2.96 0 1.48 1.48 0 0 1-2.96 0Z" clip-rule="evenodd"></path><path stroke="#fff" stroke-linecap="round" stroke-linejoin="round" stroke-width="4" d="M22 2 4 20"></path><path stroke="currentColor" stroke-linecap="round" stroke-linejoin="round" stroke-width="1.4" d="M22 2 4 20"></path></svg>