<svg xmlns="http://www.w3.org/2000/svg" width="24" height="24" viewBox="0 0 24 24" fill="none"><path fill-rule="evenodd" clip-rule="evenodd" d="M21.0303 4.03033C21.3232 3.73744 21.3232 3.26256 21.0303 2.96967C20.7374 2.67678 20.2626 2.67678 19.9697 2.96967L3.46967 19.4697C3.17678 19.7626 3.17678 20.2374 3.46967 20.5303C3.76256 20.8232 4.23744 20.8232 4.53033 20.5303L21.0303 4.03033ZM12 18.9994C10.7804 18.9994 9.62448 18.7265 8.59007 18.2384L9.8126 17.0158C10.4951 17.264 11.2317 17.3994 12 17.3994C15.5346 17.3994 18.4 14.534 18.4 10.9994C18.4 10.2311 18.2646 9.49447 18.0164 8.81199L19.239 7.58946C19.7271 8.62386 20 9.77975 20 10.9994C20 13.1751 19.1314 15.148 17.7222 16.5902L21.5657 20.4337C21.8781 20.7461 21.8781 21.2527 21.5657 21.5651C21.2533 21.8775 20.7467 21.8775 20.4343 21.5651L16.4904 17.6212C15.2102 18.4911 13.6645 18.9994 12 18.9994ZM12 4.59939C13.2999 4.59939 14.5092 4.98691 15.5188 5.65272L16.6691 4.50251C15.3551 3.55657 13.7426 2.99939 12 2.99939C7.58172 2.99939 4 6.58111 4 10.9994C4 12.742 4.55718 14.3545 5.50312 15.6685L6.65334 14.5182C5.98752 13.5086 5.6 12.2993 5.6 10.9994C5.6 7.46477 8.46538 4.59939 12 4.59939Z" fill="currentColor"></path></svg>