<svg xmlns="http://www.w3.org/2000/svg" width="24" height="24" viewBox="0 0 24 24" fill="none"><path fill-rule="evenodd" clip-rule="evenodd" d="M5.63642 4.3636C5.28495 4.01213 4.7151 4.01213 4.36363 4.3636C4.01216 4.71508 4.01216 5.28492 4.36363 5.6364L10.7272 12L4.36363 18.3636C4.01216 18.7151 4.01216 19.2849 4.36363 19.6364C4.7151 19.9879 5.28495 19.9879 5.63642 19.6364L12 13.2728L18.3636 19.6364C18.7151 19.9879 19.285 19.9879 19.6364 19.6364C19.9879 19.2849 19.9879 18.7151 19.6364 18.3636L13.2728 12L19.6364 5.6364C19.9879 5.28492 19.9879 4.71508 19.6364 4.3636C19.2849 4.01213 18.7151 4.01213 18.3636 4.3636L12 10.7272L5.63642 4.3636Z" fill="currentColor"></path></svg>