<svg xmlns="http://www.w3.org/2000/svg" width="24" height="24" viewBox="0 0 24 24" fill="none" ><path d="M2.5 12C2.5 6.75329 6.75329 2.5 12 2.5C17.2467 2.5 21.5 6.75329 21.5 12C21.5 17.2467 17.2467 21.5 12 21.5C6.75329 21.5 2.5 17.2467 2.5 12Z" fill="#1A1A1A"></path><path fill-rule="evenodd" clip-rule="evenodd" d="M11.8078 2.5C11.7629 6.40837 11.5073 8.59567 10.0515 10.0515C8.59567 11.5073 6.40837 11.7629 2.5 11.8078V12.3749C6.40837 12.4198 8.59567 12.6754 10.0515 14.1312C11.4845 15.5642 11.7546 17.7059 11.8055 21.5H12.3772C12.4281 17.7059 12.6982 15.5642 14.1312 14.1312C15.5642 12.6982 17.7059 12.4281 21.5 12.3772V11.8055C17.7059 11.7546 15.5642 11.4845 14.1312 10.0515C12.6754 8.59567 12.4198 6.40837 12.3749 2.5H11.8078Z" fill="white"></path></svg>