<svg xmlns="http://www.w3.org/2000/svg" viewBox="0 0 24 24" width="24" height="24" fill="none" data-testid="icon" class=""><path fill-rule="evenodd" clip-rule="evenodd" d="M12.0008 5C8.19581 5 4.87064 7.16515 3.05268 10.3951C2.90057 10.6654 2.71258 11.0589 2.48872 11.5758L2.48874 11.5758C2.37135 11.8468 2.37042 12.1541 2.48616 12.4258C2.65578 12.824 2.79783 13.1313 2.9123 13.3477C4.69596 16.7194 8.09568 19 12.0008 19C15.8834 19 19.2665 16.7455 21.0583 13.4057C21.1808 13.1774 21.3327 12.8514 21.5139 12.4275L21.5139 12.4275C21.6305 12.1548 21.6295 11.846 21.511 11.574C21.2692 11.0191 21.0658 10.598 20.9009 10.3108C19.0728 7.12753 15.7725 5 12.0008 5ZM12.0008 16.6667C9.56888 16.6667 7.59517 14.576 7.59517 12C7.59517 9.424 9.56888 7.33333 12.0008 7.33333C14.4327 7.33333 16.4064 9.424 16.4064 12C16.4064 14.576 14.4327 16.6667 12.0008 16.6667ZM12.0008 9.2C10.5381 9.2 9.35741 10.4507 9.35741 12C9.35741 13.5493 10.5381 14.8 12.0008 14.8C13.4634 14.8 14.6441 13.5493 14.6441 12C14.6441 10.4507 13.4634 9.2 12.0008 9.2Z" fill="currentColor"></path></svg>