<svg xmlns="http://www.w3.org/2000/svg" viewBox="0 0 24 24" width="24" height="24" fill="none" data-testid="icon" class=""><path fill-rule="evenodd" clip-rule="evenodd" d="M16.0428 8.07247L16.1608 8.5L16.0428 8.92753C15.8559 9.60467 15.2341 10.1 14.5002 10.1C13.7663 10.1 13.1445 9.60467 12.9576 8.92753L12.8396 8.5L12.9576 8.07247C13.1445 7.39533 13.7663 6.9 14.5002 6.9C15.2341 6.9 15.8559 7.39533 16.0428 8.07247ZM20.3002 8.5C20.3002 8.05817 19.942 7.7 19.5002 7.7H17.3923C17.0422 6.43153 15.88 5.5 14.5002 5.5C13.1204 5.5 11.9581 6.43153 11.608 7.7H4.5002C4.05837 7.7 3.7002 8.05817 3.7002 8.5C3.7002 8.94183 4.05837 9.3 4.5002 9.3H11.608C11.9581 10.5685 13.1204 11.5 14.5002 11.5C15.88 11.5 17.0422 10.5685 17.3923 9.3H19.5002C19.942 9.3 20.3002 8.94183 20.3002 8.5Z" fill="currentColor"></path><path fill-rule="evenodd" clip-rule="evenodd" d="M4.5002 14.7C4.05837 14.7 3.7002 15.0582 3.7002 15.5C3.7002 15.9418 4.05837 16.3 4.5002 16.3H6.60804C6.95814 17.5685 8.12038 18.5 9.5002 18.5C10.88 18.5 12.0423 17.5685 12.3923 16.3H19.5002C19.942 16.3 20.3002 15.9418 20.3002 15.5C20.3002 15.0582 19.942 14.7 19.5002 14.7H12.3923C12.0423 13.4315 10.88 12.5 9.5002 12.5C8.12038 12.5 6.95814 13.4315 6.60804 14.7H4.5002ZM7.95758 15.9275L7.83959 15.5L7.95758 15.0725C8.14447 14.3953 8.76629 13.9 9.5002 13.9C10.2341 13.9 10.8559 14.3953 11.0428 15.0725L11.1608 15.5L11.0428 15.9275C10.8559 16.6047 10.2341 17.1 9.5002 17.1C8.76629 17.1 8.14447 16.6047 7.95758 15.9275Z" fill="currentColor"></path><circle cx="18" cy="6" r="4" fill="#E52E6B" stroke="white" stroke-width="2"></circle></svg>