<svg xmlns="http://www.w3.org/2000/svg" viewBox="0 0 12 12" width="12" height="12" fill="none" data-testid="icon" class=""><path xmlns="http://www.w3.org/2000/svg" fill-rule="evenodd" clip-rule="evenodd" d="M12 6C12 9.31371 9.31371 12 6 12C2.68629 12 0 9.31371 0 6C0 2.68629 2.68629 0 6 0C9.31371 0 12 2.68629 12 6ZM11 6C11 8.76142 8.76142 11 6 11C3.23858 11 1 8.76142 1 6C1 3.23858 3.23858 1 6 1C8.76142 1 11 3.23858 11 6ZM5.49219 7.52344H6.48828C6.48307 7.22135 6.50781 7.01172 6.5625 6.89453C6.61979 6.77734 6.76432 6.6224 6.99609 6.42969C7.44401 6.05729 7.73568 5.76302 7.87109 5.54688C8.00911 5.33073 8.07812 5.10156 8.07812 4.85938C8.07812 4.42188 7.89193 4.03906 7.51953 3.71094C7.14714 3.38021 6.64583 3.21484 6.01562 3.21484C5.41667 3.21484 4.93229 3.3776 4.5625 3.70312C4.19531 4.02865 3.9974 4.42448 3.96875 4.89062L4.97656 5.01562C5.04688 4.6901 5.17578 4.44792 5.36328 4.28906C5.55078 4.13021 5.78385 4.05078 6.0625 4.05078C6.35156 4.05078 6.58073 4.1276 6.75 4.28125C6.92188 4.43229 7.00781 4.61458 7.00781 4.82812C7.00781 4.98177 6.95964 5.1224 6.86328 5.25C6.80078 5.33073 6.60938 5.5013 6.28906 5.76172C5.96875 6.02214 5.75521 6.25651 5.64844 6.46484C5.54167 6.67318 5.48828 6.9388 5.48828 7.26172C5.48828 7.29297 5.48958 7.38021 5.49219 7.52344ZM5.49219 7.90234V9H6.58984V7.90234H5.49219Z" fill="currentColor"></path></svg>