<?xml version="1.0"?>
<svg width="125" height="42" xmlns="http://www.w3.org/2000/svg" xmlns:svg="http://www.w3.org/2000/svg">
 <defs>
  <linearGradient id="Logo-0.41064320484320893" x1="-0.046034" x2="1.026024" y1="0.603557" y2="0.392592">
   <stop stop-color="#990099"/>
   <stop offset="0.2873" stop-color="#BB0088"/>
   <stop offset="0.5525" stop-color="#D9006D"/>
   <stop offset="1" stop-color="#F20061"/>
  </linearGradient>
 </defs>
 <g class="layer">
  <path d="m123.55139,17.582195l-15.551856,0c-1.089871,0 -1.971859,-0.840975 -1.971859,-1.880313l0,-0.047234c0,-1.039338 0.881988,-1.880217 1.971859,-1.880217l3.855924,0c1.089871,0 1.971859,-0.840975 1.971859,-1.880313l0,-0.047234c0,-1.0393 -0.881988,-1.880217 -1.971859,-1.880217l-106.747479,0c-2.59683,0 -4.707991,2.012491 -4.707991,4.487989l0,13.738136c0,2.513305 2.14089,4.554174 4.777369,4.554174l110.583473,0c1.089871,0 1.971859,-0.840879 1.971859,-1.880217l0,-0.037806c0,-1.039338 -0.881988,-1.880217 -1.971859,-1.880217l-3.845832,0c-1.09088,0 -1.972869,-0.840975 -1.972869,-1.880313c0,-1.039338 -0.881988,-1.880217 -1.971859,-1.880217l-7.751002,0c-1.090275,0 -1.972465,-0.840879 -1.972465,-1.880217l0,-0.037806c0,-1.039338 0.88219,-1.880313 1.972465,-1.880313l23.341205,0c1.09088,0 1.972869,-0.840879 1.972869,-1.880217l0,-0.037806c0,-1.048766 -0.89208,-1.889644 -1.981951,-1.889644z" fill="url(#Logo-0.41064320484320893)" id="svg_1" style="vector-effect: non-scaling-stroke;"/>
  <path d="m36.129953,17.935132l-2.019617,6.534254c-0.008078,0.029149 -0.024072,0.038865 -0.048144,0.038865c-0.023991,0 -0.040066,-0.019433 -0.048063,-0.038865l-2.075839,-6.553687c-0.176257,-0.564838 -0.625061,-0.944569 -1.130006,-0.944569l-1.8995,0c-0.176339,0 -0.28854,0.214256 -0.232399,0.40898l3.534451,11.023413c0.040066,0.116795 0.128195,0.185007 0.232399,0.185007l2.981444,0c0.096207,0 0.192333,-0.077929 0.224402,-0.185007l3.21319,-9.437068c-1.404674,1.788207 -1.361752,0.979072 -0.877207,-0.012393l-0.725022,-1.982931c-0.496866,0.009716 -0.953749,0.389547 -1.130088,0.964002z" fill="white" id="svg_3"/>
  <path d="m69.013919,17.787875l-2.746929,3.957322c-0.01617,0.018581 -0.040508,0.037257 -0.064845,0.037257c-0.01617,0 -0.03234,-0.018676 -0.03234,-0.037257l0,-7.728358c0,-0.130353 -0.089183,-0.232739 -0.202621,-0.232739l-2.479546,0c-0.113438,0 -0.202538,0.102386 -0.202538,0.232739l0,14.115836c0,0.130448 0.0891,0.232834 0.202538,0.232834l2.479546,0c0.113438,0 0.202621,-0.102386 0.202621,-0.232834l0,-4.608991c0,-0.018676 0.01617,-0.037257 0.03234,-0.037257c0.016253,0 0.032423,0.009291 0.040508,0.027872l2.714507,4.283252c0.226958,0.363092 0.599695,0.57725 0.988601,0.57725l2.528139,0c0.137775,0 0.210706,-0.176901 0.12969,-0.297963l-3.411387,-5.325979c-0.05676,-0.083805 -0.048675,-0.204867 0.008085,-0.288672l3.476149,-4.879082c0.089183,-0.121062 0.008168,-0.307253 -0.129608,-0.307253l-2.584899,0c-0.356484,-0.018676 -0.71305,0.176901 -0.948011,0.512026z" fill="white" id="svg_4"/>
  <path d="m94.974267,17.452139l-1.834583,5.393962c-0.007411,0.024575 -0.022308,0.032767 -0.044541,0.032767c-0.022308,0 -0.03713,-0.016383 -0.044617,-0.032767l-1.960796,-5.418537c-0.170829,-0.468012 -0.579338,-0.779964 -1.039874,-0.779964l-1.767658,0c-0.163419,0 -0.267398,0.180635 -0.208035,0.344802l3.513234,9.778009c0.014822,0.049234 0.014822,0.106742 0,0.155976l-1.002744,2.610718c-0.06685,0.164168 0.044541,0.352994 0.20796,0.352994l2.347072,0c0.096569,0 0.17824,-0.065617 0.20796,-0.155976l4.619883,-12.73353c0.059363,-0.164168 -0.052028,-0.344802 -0.20796,-0.344802l-1.738014,0c-0.467947,-0.008192 -0.883867,0.312036 -1.047285,0.796347z" fill="white" id="svg_5"/>
  <path d="m56.521214,16.4547c-3.018597,0 -5.463814,2.638475 -5.463814,6.146699c0,3.508225 2.445216,6.146601 5.463814,6.146601c2.200721,0 4.089469,-1.401302 4.95791,-3.527511c0.084303,-0.193256 -0.042152,-0.425281 -0.236083,-0.425281l-2.740363,0c-0.07589,0 -0.15178,0.038671 -0.202344,0.106369c-0.387863,0.550838 -1.104524,0.821436 -1.787533,0.821436c-1.1805,0 -2.057354,-0.80215 -2.42839,-1.932854l4.831455,0l1.998376,0l0.244496,0c0.430014,0 0.784138,-0.38661 0.809463,-0.879492c0.008413,-0.106271 0.008413,-0.212641 0.008413,-0.328555c0.016912,-3.469652 -2.436803,-6.127413 -5.455401,-6.127413zm-2.30185,4.938653c-0.059064,0 -0.101215,-0.067699 -0.084303,-0.135299c0.387863,-1.063104 1.239477,-1.797654 2.37774,-1.797654c1.188913,0 2.133244,0.695879 2.411478,1.807297c0.016912,0.057957 -0.025239,0.125656 -0.084303,0.125656l-4.620612,0z" fill="white" id="svg_6"/>
  <path d="m75.404395,28.365l0.04371,0c0.883106,0 1.600095,-0.760591 1.600095,-1.6974c0,-0.936809 -0.716989,-1.6974 -1.600095,-1.6974l-0.04371,0c-0.883106,0 -1.600095,0.760591 -1.600095,1.6974c0.008813,0.936809 0.716989,1.6974 1.600095,1.6974z" fill="white" id="svg_7"/>
  <path d="m83.527229,16.742183c-0.981205,0.072615 -1.879266,0.526226 -2.513296,1.215882c-0.030199,0.027254 -0.067929,0.045361 -0.105659,0.045361l0,-3.938014c0,-0.154283 -0.105659,-0.281313 -0.233986,-0.281313l-2.241503,0c-0.128327,0 -0.233986,0.12703 -0.233986,0.281313l0,13.647057c0,0.154283 0.105659,0.281313 0.233986,0.281313l2.181181,0c0.128251,0 0.233909,-0.12703 0.233909,-0.281313l0,-0.589787c0.045337,0 0.098128,0.027254 0.128327,0.063561c0.611361,0.68051 1.615158,1.10696 2.551026,1.152321c2.649077,0.12703 4.626471,-2.495326 4.626471,-5.798191c0,-3.284758 -1.947195,-6.006889 -4.626471,-5.798191zm-0.377375,8.756274c-1.275513,0 -2.317039,-1.324804 -2.317039,-2.958083c0,-1.633279 1.033996,-2.958083 2.317039,-2.958083c1.283043,0 2.317039,1.324804 2.317039,2.958083c-0.007531,1.633279 -1.041527,2.958083 -2.317039,2.958083z" fill="white" id="svg_8"/>
  <path d="m64.950348,49.005836c0,-2.395237 -1.688017,-4.693614 -5.449916,-4.683938c-5.064082,0 -5.469214,4.014804 -5.478858,5.159154c0,0.164889 0.135037,0.300651 0.299027,0.300651l2.990221,0c0.144682,0 0.270085,-0.106734 0.289373,-0.252172c0.086817,-0.601204 0.443709,-2.046205 1.871266,-2.046205c1.408318,0 1.871374,0.950433 1.871374,1.668046c0,0.998813 -0.376239,1.522509 -2.507965,3.539587l-3.501458,3.122625c-0.858485,0.766191 -1.350424,1.852288 -1.350424,3.006314l0,0.824248c0,0.164889 0.135047,0.300651 0.299027,0.300651l9.279362,0c0.75238,0 1.369722,-0.610978 1.369722,-1.377071l0,-1.75523c0,-0.135762 -0.106164,-0.242496 -0.241201,-0.242496l-5.093024,0c-0.086817,0 -0.135037,-0.116311 -0.057845,-0.174565l1.996689,-1.6873c1.8809,-1.726202 3.414631,-3.345769 3.414631,-5.702301z" fill="white" id="svg_10"/>
  <path d="m42.578241,17.871961l-1.984256,6.534255c-0.007937,0.029149 -0.023651,0.038865 -0.047301,0.038865c-0.023571,0 -0.039364,-0.019433 -0.047221,-0.038865l-2.039495,-6.553688c-0.173171,-0.564838 -0.614117,-0.944569 -1.110222,-0.944569l-1.224868,1.388052c1.91122,2.974397 1.159608,1.998894 -0.067986,0.40898l2.670849,9.635361c0.039364,0.116795 0.12595,0.185008 0.22833,0.185008l2.929244,0c0.094523,0 0.188965,-0.077929 0.220473,-0.185008l3.637964,-11.023413c0.063015,-0.194724 -0.055158,-0.40898 -0.220473,-0.40898l-1.834736,0c-0.488167,0.009716 -0.93705,0.389547 -1.110302,0.964002z" fill="white" id="svg_12"/>
  <path d="m46.813801,19.42053l0.874602,0c0.077496,0 0.138421,0.080583 0.138421,0.183176l0,8.66949c0,0.124605 0.077496,0.227198 0.171561,0.227198l1.71054,0c0.094066,0 0.171561,-0.102594 0.171561,-0.227198l0,-10.142434c0,-0.608249 -0.376375,-1.106593 -0.835882,-1.106593l-2.22528,0c-0.094122,0 -0.171618,0.102594 -0.171618,0.227198l0,1.949352c0,0.117218 0.071972,0.219811 0.166094,0.219811z" fill="white" id="svg_13" transform="rotate(179.542 48.2641 22.7623)"/>
  <path d="m46.864049,19.387801l0.874602,0c0.077496,0 0.138421,0.079879 0.138421,0.181576l0,8.593755c0,0.123516 0.077496,0.225213 0.171561,0.225213l1.71054,0c0.094066,0 0.171561,-0.101697 0.171561,-0.225213l0,-10.053832c0,-0.602936 -0.376375,-1.096926 -0.835882,-1.096926l-2.22528,0c-0.094122,0 -0.171618,0.101697 -0.171618,0.225213l0,1.932323c0,0.116194 0.071972,0.217891 0.166094,0.217891z" fill="white" id="svg_14" transform="rotate(-0.411902 48.3143 22.7004)"/>
  <path d="m48.075451,16.4974l0.0491,0c0.992,0 1.7974,-0.8054 1.7974,-1.7974c0,-0.992 -0.8054,-1.7974 -1.7974,-1.7974l-0.0491,0c-0.992,0 -1.7974,0.8054 -1.7974,1.7974c0.0099,0.992 0.8054,1.7974 1.7974,1.7974z" fill="white" id="svg_16"/>
  <path d="m27.683682,18.242521c0,-2.379905 -1.688017,-4.663571 -5.449916,-4.653957c-5.064082,0 -5.469214,3.989106 -5.478858,5.126131c0,0.163834 0.135037,0.298727 0.299027,0.298727l2.990221,0c0.144682,0 0.270085,-0.10605 0.289373,-0.250558c0.086817,-0.597355 0.443709,-2.033108 1.871266,-2.033108c1.408318,0 1.871374,0.944349 1.871374,1.657369c0,0.99242 -0.376239,1.512764 -2.507965,3.516931l-3.501458,3.102638c-0.858485,0.761287 -1.350424,1.840431 -1.350424,2.987071l0,0.818972c0,0.163834 0.135047,0.298727 0.299027,0.298727l9.279362,0c0.75238,0 1.369722,-0.607068 1.369722,-1.368257l0,-1.743995c0,-0.134893 -0.106164,-0.240943 -0.241201,-0.240943l-5.093024,0c-0.086817,0 -0.135037,-0.115567 -0.057845,-0.173448l1.996689,-1.6765c1.8809,-1.715153 3.414631,-3.324353 3.414631,-5.665801z" fill="white" id="svg_17"/>
  <path d="m15.683678,18.292522c0,-2.379905 -1.688017,-4.663571 -5.449916,-4.653957c-5.064082,0 -5.469214,3.989106 -5.478858,5.126131c0,0.163834 0.135037,0.298727 0.299027,0.298727l2.990221,0c0.144682,0 0.270085,-0.10605 0.289373,-0.250558c0.086817,-0.597355 0.443709,-2.033108 1.871266,-2.033108c1.408318,0 1.871374,0.944349 1.871374,1.657369c0,0.99242 -0.376239,1.512764 -2.507965,3.516931l-3.501458,3.102638c-0.858485,0.761287 -1.350424,1.840431 -1.350424,2.987071l0,0.818972c0,0.163834 0.135047,0.298727 0.299027,0.298727l9.279362,0c0.75238,0 1.369722,-0.607068 1.369722,-1.368257l0,-1.743995c0,-0.134893 -0.106164,-0.240943 -0.241201,-0.240943l-5.093024,0c-0.086817,0 -0.135037,-0.115567 -0.057845,-0.173448l1.996689,-1.6765c1.8809,-1.715153 3.414631,-3.324353 3.414631,-5.665801z" fill="white" id="svg_20"/>
 </g>
</svg>