<svg width="125" height="42" viewBox="0 0 125 42" fill="none" xmlns="http://www.w3.org/2000/svg"><path d="M122.036 16.9164H106.625C105.545 16.9164 104.671 16.0422 104.671 14.9618V14.9127C104.671 13.8323 105.545 12.9582 106.625 12.9582H110.446C111.526 12.9582 112.4 12.084 112.4 11.0036V10.9545C112.4 9.87414 111.526 9 110.446 9H4.66535C2.09204 9 0 11.092 0 13.6653V27.9462C0 30.5588 2.1215 32.6803 4.7341 32.6803H114.316C115.396 32.6803 116.27 31.8062 116.27 30.7258V30.6865C116.27 29.6061 115.396 28.732 114.316 28.732H110.505C109.424 28.732 108.55 27.8578 108.55 26.7774C108.55 25.697 107.676 24.8229 106.596 24.8229H98.9152C97.8348 24.8229 96.9606 23.9488 96.9606 22.8684V22.8291C96.9606 21.7487 97.8348 20.8745 98.9152 20.8745H122.045C123.126 20.8745 124 20.0004 124 18.92V18.8807C124 17.7905 123.116 16.9164 122.036 16.9164Z" fill="url(#Logo-0.41064320484320893)"></path><path d="M18.1515 16.3958H19.7033C19.8408 16.3958 19.9489 16.5038 19.9489 16.6413V28.2605C19.9489 28.4275 20.0864 28.565 20.2533 28.565H23.2883C23.4552 28.565 23.5927 28.4275 23.5927 28.2605V14.6672C23.5927 13.852 22.9249 13.1841 22.1096 13.1841H18.1613C17.9943 13.1841 17.8568 13.3216 17.8568 13.4886V16.1012C17.8568 16.2583 17.9845 16.3958 18.1515 16.3958Z" fill="white"></path><path d="M33.7472 17.8101L31.2722 24.4006C31.2623 24.43 31.2427 24.4398 31.2132 24.4398C31.1838 24.4398 31.1641 24.4202 31.1543 24.4006L28.6104 17.7905C28.3944 17.2208 27.8444 16.8378 27.2256 16.8378H24.8978C24.6817 16.8378 24.5442 17.0539 24.613 17.2503L28.9444 28.3686C28.9935 28.4864 29.1015 28.5552 29.2292 28.5552H32.8829C33.0008 28.5552 33.1186 28.4766 33.1579 28.3686L37.6956 17.2503C37.7742 17.0539 37.6268 16.8378 37.4206 16.8378H35.1321C34.5232 16.8476 33.9633 17.2307 33.7472 17.8101Z" fill="white"></path><path d="M57.8291 17.4074L54.4995 21.5817C54.4799 21.6013 54.4504 21.621 54.4209 21.621C54.4013 21.621 54.3817 21.6013 54.3817 21.5817V13.4296C54.3817 13.2921 54.2736 13.1841 54.1361 13.1841H51.1306C50.9931 13.1841 50.8851 13.2921 50.8851 13.4296V28.3194C50.8851 28.457 50.9931 28.565 51.1306 28.565H54.1361C54.2736 28.565 54.3817 28.457 54.3817 28.3194V23.4577C54.3817 23.438 54.4013 23.4184 54.4209 23.4184C54.4406 23.4184 54.4602 23.4282 54.47 23.4478L57.7603 27.9659C58.0354 28.3489 58.4872 28.5748 58.9586 28.5748H62.023C62.19 28.5748 62.2784 28.3882 62.1802 28.2605L58.0452 22.6425C57.9764 22.5541 57.9862 22.4264 58.055 22.338L62.2685 17.1914C62.3766 17.0637 62.2784 16.8673 62.1114 16.8673H58.9782C58.5461 16.8476 58.1139 17.0539 57.8291 17.4074Z" fill="white"></path><path d="M90.2041 17.8101L87.7781 24.2631C87.7683 24.2925 87.7486 24.3023 87.7192 24.3023C87.6897 24.3023 87.6701 24.2827 87.6602 24.2631L85.0673 17.7807C84.8414 17.2208 84.3012 16.8476 83.6922 16.8476H81.3547C81.1386 16.8476 81.0011 17.0637 81.0796 17.2601L85.7254 28.9579C85.745 29.0168 85.745 29.0856 85.7254 29.1445L84.3994 32.2678C84.311 32.4642 84.4583 32.6901 84.6744 32.6901H87.7781C87.9058 32.6901 88.0138 32.6116 88.0531 32.5035L94.1623 17.2699C94.2408 17.0735 94.0935 16.8574 93.8873 16.8574H91.589C90.9702 16.8476 90.4202 17.2307 90.2041 17.8101Z" fill="white"></path><path d="M43.4219 16.4547C39.9057 16.4547 37.0574 19.1361 37.0574 22.7014C37.0574 26.2667 39.9057 28.948 43.4219 28.948C45.9854 28.948 48.1855 27.5239 49.1971 25.3631C49.2953 25.1667 49.148 24.9309 48.9221 24.9309H45.73C45.6416 24.9309 45.5532 24.9702 45.4943 25.039C45.0425 25.5988 44.2077 25.8738 43.4121 25.8738C42.037 25.8738 41.0156 25.0586 40.5834 23.9095H46.2113H48.5391H48.8239C49.3248 23.9095 49.7373 23.5166 49.7668 23.0157C49.7766 22.9077 49.7766 22.7996 49.7766 22.6818C49.7963 19.1557 46.9381 16.4547 43.4219 16.4547ZM40.7406 21.4737C40.6718 21.4737 40.6227 21.4049 40.6424 21.3362C41.0942 20.2558 42.0862 19.5093 43.4121 19.5093C44.797 19.5093 45.897 20.2165 46.2211 21.346C46.2408 21.4049 46.1917 21.4737 46.1229 21.4737H40.7406Z" fill="white"></path><path d="M65.0017 28.565H65.0508C66.0428 28.565 66.8482 27.7596 66.8482 26.7676C66.8482 25.7756 66.0428 24.9702 65.0508 24.9702H65.0017C64.0097 24.9702 63.2043 25.7756 63.2043 26.7676C63.2142 27.7596 64.0097 28.565 65.0017 28.565Z" fill="white"></path><path d="M75.333 16.386C74.0561 16.4646 72.8874 16.9556 72.0623 17.7021C72.023 17.7316 71.9739 17.7512 71.9248 17.7512V13.4886C71.9248 13.3216 71.7873 13.1841 71.6203 13.1841H68.7033C68.5363 13.1841 68.3988 13.3216 68.3988 13.4886V28.2605C68.3988 28.4275 68.5363 28.565 68.7033 28.565H71.5418C71.7087 28.565 71.8462 28.4275 71.8462 28.2605V27.6221C71.9052 27.6221 71.9739 27.6516 72.0132 27.6909C72.8088 28.4275 74.1151 28.8891 75.333 28.9382C78.7804 29.0757 81.3537 26.2372 81.3537 22.6621C81.3537 19.1066 78.8197 16.1601 75.333 16.386ZM74.8419 25.864C73.182 25.864 71.8266 24.43 71.8266 22.6621C71.8266 20.8942 73.1722 19.4602 74.8419 19.4602C76.5116 19.4602 77.8572 20.8942 77.8572 22.6621C77.8474 24.43 76.5018 25.864 74.8419 25.864Z" fill="white"></path><path d="M17.0213 17.4467C17.0213 15.0208 15.3025 12.693 11.472 12.7028C6.31557 12.7028 5.90305 16.769 5.89323 17.928C5.89323 18.095 6.03073 18.2325 6.19771 18.2325H9.24246C9.38978 18.2325 9.51747 18.1244 9.53711 17.9771C9.62551 17.3682 9.98891 15.9047 11.4425 15.9047C12.8765 15.9047 13.348 16.8673 13.348 17.5941C13.348 18.6057 12.9649 19.1361 10.7943 21.179L7.22899 24.3416C6.35485 25.1176 5.85394 26.2176 5.85394 27.3864V28.2212C5.85394 28.3882 5.99145 28.5257 6.15842 28.5257H15.607C16.3731 28.5257 17.0017 27.9069 17.0017 27.131V25.3533C17.0017 25.2158 16.8936 25.1077 16.7561 25.1077H11.5702C11.4818 25.1077 11.4327 24.9899 11.5113 24.9309L13.5444 23.222C15.4596 21.4737 17.0213 19.8334 17.0213 17.4467Z" fill="white"></path><defs><linearGradient id="Logo-0.41064320484320893" x1="-5.70822" y1="23.2924" x2="127.227" y2="18.2967" gradientUnits="userSpaceOnUse"><stop stop-color="#990099"></stop><stop offset="0.2873" stop-color="#BB0088"></stop><stop offset="0.5525" stop-color="#D9006D"></stop><stop offset="1" stop-color="#F20061"></stop></linearGradient></defs></svg>