<svg width="90" height="24" viewBox="0 0 90 24" fill="none" xmlns="http://www.w3.org/2000/svg"><path d="M12.1387 6.63743H13.6672C13.8026 6.63743 13.9091 6.74385 13.9091 6.87928V18.3235C13.9091 18.488 14.0445 18.6234 14.2089 18.6234H17.1982C17.3626 18.6234 17.4981 18.488 17.4981 18.3235V4.93482C17.4981 4.13189 16.8403 3.47406 16.0373 3.47406H12.1484C11.9839 3.47406 11.8485 3.60949 11.8485 3.77395V6.34721C11.8485 6.502 11.9743 6.63743 12.1387 6.63743Z" fill="currentColor"></path><path d="M27.4998 8.03044L25.062 14.5216C25.0523 14.5507 25.0329 14.5603 25.0039 14.5603C24.9749 14.5603 24.9555 14.541 24.9459 14.5216L22.4403 8.01109C22.2275 7.45001 21.6858 7.07272 21.0763 7.07272H18.7836C18.5708 7.07272 18.4353 7.28555 18.503 7.47903L22.7692 18.4299C22.8176 18.546 22.924 18.6137 23.0498 18.6137H26.6485C26.7646 18.6137 26.8807 18.5363 26.9193 18.4299L31.3887 7.47903C31.4661 7.28555 31.321 7.07272 31.1178 7.07272H28.8638C28.264 7.0824 27.7126 7.45968 27.4998 8.03044Z" fill="currentColor"></path><path d="M51.219 7.63385L47.9395 11.7453C47.9202 11.7646 47.8911 11.784 47.8621 11.784C47.8428 11.784 47.8234 11.7646 47.8234 11.7453V3.71591C47.8234 3.58047 47.717 3.47406 47.5816 3.47406H44.6214C44.4859 3.47406 44.3795 3.58047 44.3795 3.71591V18.3816C44.3795 18.517 44.4859 18.6234 44.6214 18.6234H47.5816C47.717 18.6234 47.8234 18.517 47.8234 18.3816V13.593C47.8234 13.5736 47.8428 13.5543 47.8621 13.5543C47.8815 13.5543 47.9008 13.564 47.9105 13.5833L51.1513 18.0333C51.4221 18.4106 51.8671 18.6331 52.3315 18.6331H55.3497C55.5142 18.6331 55.6013 18.4493 55.5045 18.3235L51.4318 12.79C51.3641 12.703 51.3738 12.5772 51.4415 12.4902L55.5916 7.42102C55.698 7.29526 55.6013 7.10178 55.4368 7.10178H52.3508C51.9252 7.08243 51.4995 7.28559 51.219 7.63385Z" fill="currentColor"></path><path d="M83.1067 8.03047L80.7173 14.3862C80.7076 14.4153 80.6883 14.4249 80.6592 14.4249C80.6302 14.4249 80.6109 14.4056 80.6012 14.3862L78.0473 8.00145C77.8248 7.45004 77.2927 7.08243 76.6929 7.08243H74.3905C74.1777 7.08243 74.0423 7.29525 74.1197 7.48873L78.6954 19.0104C78.7148 19.0684 78.7148 19.1361 78.6954 19.1942L77.3894 22.2705C77.3024 22.464 77.4475 22.6865 77.6603 22.6865H80.7173C80.843 22.6865 80.9494 22.6091 80.9881 22.5027L87.0053 7.49841C87.0827 7.30493 86.9376 7.0921 86.7344 7.0921H84.4708C83.8613 7.08243 83.3196 7.45971 83.1067 8.03047Z" fill="currentColor"></path><path d="M37.0288 6.69547C33.5656 6.69547 30.7601 9.33645 30.7601 12.8481C30.7601 16.3597 33.5656 19.0007 37.0288 19.0007C39.5537 19.0007 41.7207 17.598 42.7171 15.4697C42.8138 15.2762 42.6687 15.0441 42.4462 15.0441H39.3022C39.2151 15.0441 39.1281 15.0828 39.07 15.1505C38.625 15.7019 37.8027 15.9728 37.0192 15.9728C35.6648 15.9728 34.6587 15.1698 34.2331 14.038H39.7762H42.0689H42.3495C42.8429 14.038 43.2492 13.651 43.2782 13.1576C43.2879 13.0512 43.2879 12.9448 43.2879 12.8287C43.3072 9.35579 40.4921 6.69547 37.0288 6.69547ZM34.3879 11.6388C34.3201 11.6388 34.2718 11.5711 34.2911 11.5034C34.7361 10.4393 35.7132 9.70405 37.0192 9.70405C38.3832 9.70405 39.4667 10.4006 39.7859 11.5131C39.8052 11.5711 39.7569 11.6388 39.6892 11.6388H34.3879Z" fill="currentColor"></path><path d="M58.2838 18.6234H58.3321C59.3092 18.6234 60.1025 17.8302 60.1025 16.8531C60.1025 15.876 59.3092 15.0828 58.3321 15.0828H58.2838C57.3067 15.0828 56.5134 15.876 56.5134 16.8531C56.5231 17.8302 57.3067 18.6234 58.2838 18.6234Z" fill="currentColor"></path><path d="M68.4594 6.62776C67.2018 6.70515 66.0506 7.18885 65.238 7.92406C65.1993 7.95309 65.1509 7.97243 65.1026 7.97243V3.77395C65.1026 3.60949 64.9671 3.47406 64.8027 3.47406H61.9295C61.7651 3.47406 61.6296 3.60949 61.6296 3.77395V18.3235C61.6296 18.488 61.7651 18.6234 61.9295 18.6234H64.7253C64.8897 18.6234 65.0252 18.488 65.0252 18.3235V17.6947C65.0832 17.6947 65.1509 17.7237 65.1896 17.7624C65.9732 18.488 67.2599 18.9427 68.4594 18.991C71.855 19.1265 74.3895 16.3307 74.3895 12.8094C74.3895 9.30743 71.8937 6.40526 68.4594 6.62776ZM67.9757 15.9631C66.3408 15.9631 65.0058 14.5507 65.0058 12.8094C65.0058 11.0681 66.3312 9.6557 67.9757 9.6557C69.6203 9.6557 70.9456 11.0681 70.9456 12.8094C70.9359 14.5507 69.6106 15.9631 67.9757 15.9631Z" fill="currentColor"></path><path d="M11.0256 7.67254C11.0256 5.28308 9.33268 2.99036 5.55985 3.00003C0.481041 3.00003 0.0747368 7.00504 0.0650628 8.14656C0.0650628 8.31101 0.200498 8.44645 0.364954 8.44645H3.36387C3.50898 8.44645 3.63474 8.34004 3.65409 8.19493C3.74115 7.59514 4.09909 6.15373 5.53083 6.15373C6.94322 6.15373 7.40757 7.10177 7.40757 7.81764C7.40757 8.81406 7.03029 9.33645 4.89235 11.3486L1.38072 14.4636C0.519737 15.2279 0.0263672 16.3113 0.0263672 17.4625V18.2848C0.0263672 18.4493 0.161802 18.5847 0.326259 18.5847H9.63257C10.3871 18.5847 11.0063 17.9753 11.0063 17.211V15.46C11.0063 15.3246 10.8999 15.2182 10.7644 15.2182H5.65659C5.56952 15.2182 5.52116 15.1021 5.59855 15.0441L7.60105 13.3608C9.48746 11.6388 11.0256 10.0233 11.0256 7.67254Z" fill="currentColor"></path></svg>