<svg width="24" height="24" viewBox="0 0 24 24" fill="none" xmlns="http://www.w3.org/2000/svg"><path fill-rule="evenodd" clip-rule="evenodd" d="M15.3344 11.7259C16.3567 10.8104 17 9.48032 17 8C17 5.23858 14.7614 3 12 3C9.23858 3 7 5.23858 7 8C7 9.48032 7.6433 10.8104 8.66559 11.7259C5.91213 12.9901 4.5 15.7718 4.5 19C4.5 20.1046 5.39543 21 6.5 21H17.5C18.6046 21 19.5 20.1046 19.5 19C19.5 15.7718 18.0879 12.9901 15.3344 11.7259ZM12 11C13.6569 11 15 9.65685 15 8C15 6.34315 13.6569 5 12 5C10.3431 5 9 6.34315 9 8C9 9.65685 10.3431 11 12 11ZM12 13C8.68629 13 6.5 15.6863 6.5 19H17.5C17.5 15.6863 15.3137 13 12 13Z" fill="currentColor"></path></svg>