<svg xmlns="http://www.w3.org/2000/svg" viewBox="0 0 24 24" width="24" height="24" fill="none"><path d="M18.6545 4.62957L3.38807 10.3545C3.23132 10.4133 3.21184 10.6271 3.3554 10.7132L7.89147 13.4349C7.95775 13.4746 8.041 13.4727 8.10531 13.4298L14 9.5L9.05201 14.9428C9.01854 14.9796 9 15.0276 9 15.0773V18.4593C9 18.645 9.23101 18.7305 9.35185 18.5895L11.888 15.6306C11.9524 15.5555 12.062 15.5388 12.1459 15.5912L15.7601 17.8501C15.8772 17.9232 16.0314 17.8586 16.0614 17.7239L18.92 4.86022C18.9544 4.70522 18.8032 4.57381 18.6545 4.62957Z" fill="currentColor"></path><path opacity="0.4" d="M9.35185 18.5895L12 15.5L10 14L9 15V18.4593C9 18.645 9.23101 18.7305 9.35185 18.5895Z" fill="currentColor"></path></svg>