<svg xmlns="http://www.w3.org/2000/svg" viewBox="0 0 16 16" width="16" height="16" fill="none" data-testid="icon" class=""><g clip-path="url(#clip0_4489_3317)"><path fill-rule="evenodd" clip-rule="evenodd" d="M2 0C0.895431 0 0 0.895431 0 2V14C0 15.1046 0.895431 16 2 16H14C15.1046 16 16 15.1046 16 14V2C16 0.895431 15.1046 0 14 0H2ZM8.16896 11.1021L12.669 6.10207L11.331 4.89793L7.46562 9.19283L5.1364 6.8636L3.8636 8.1364L6.8636 11.1364C7.03819 11.311 7.27684 11.4062 7.52366 11.3997C7.77048 11.3932 8.00379 11.2856 8.16896 11.1021Z" fill="currentColor"></path></g><defs><clipPath id="clip0_4489_3317"><rect width="16" height="16" fill="white"></rect></clipPath></defs></svg>