<svg xmlns="http://www.w3.org/2000/svg" viewBox="0 0 24 24" width="24" height="24" fill="none" data-testid="icon" class=""><path fill-rule="evenodd" clip-rule="evenodd" d="M8.10482 18.9952C8.37819 19.2685 8.82141 19.2685 9.09477 18.9952L12.5948 15.4952C12.8681 15.2218 12.8681 14.7786 12.5948 14.5052C12.3214 14.2319 11.8782 14.2319 11.6048 14.5052L9.2998 16.8102L9.2998 7.0002C9.2998 6.6136 8.9864 6.3002 8.5998 6.3002C8.2132 6.3002 7.8998 6.6136 7.8998 7.0002L7.8998 16.8102L5.59477 14.5052C5.3214 14.2319 4.87819 14.2319 4.60482 14.5052C4.33145 14.7786 4.33145 15.2218 4.60482 15.4952L8.10482 18.9952ZM14.8998 17.0002C14.8998 17.3868 15.2132 17.7002 15.5998 17.7002C15.9864 17.7002 16.2998 17.3868 16.2998 17.0002L16.2998 7.19015L18.6048 9.49517C18.8782 9.76854 19.3214 9.76854 19.5948 9.49517C19.8681 9.2218 19.8681 8.77859 19.5948 8.50522L16.0948 5.00522C15.8214 4.73185 15.3782 4.73185 15.1048 5.00522L11.6048 8.50522C11.3315 8.77859 11.3315 9.2218 11.6048 9.49517C11.8782 9.76854 12.3214 9.76854 12.5948 9.49517L14.8998 7.19015L14.8998 17.0002Z" fill="currentColor"></path></svg>