<svg xmlns="http://www.w3.org/2000/svg" viewBox="0 0 14 13" width="24" height="24" fill="none" ><path d="M6.53834 0.609965C6.70914 0.199319 7.29086 0.199318 7.46166 0.609964L8.86649 3.98759C8.9385 4.1607 9.1013 4.27899 9.2882 4.29397L12.9346 4.58631C13.378 4.62185 13.5577 5.1751 13.2199 5.46444L10.4418 7.84425C10.2994 7.96623 10.2372 8.15762 10.2807 8.34L11.1295 11.8983C11.2327 12.3309 10.762 12.6728 10.3825 12.441L7.26063 10.5342C7.10062 10.4365 6.89938 10.4365 6.73937 10.5342L3.61752 12.441C3.23797 12.6728 2.76735 12.3309 2.87054 11.8983L3.71932 8.34C3.76283 8.15762 3.70064 7.96623 3.55825 7.84425L0.780054 5.46444C0.442286 5.1751 0.622048 4.62185 1.06538 4.58631L4.7118 4.29397C4.8987 4.27899 5.0615 4.1607 5.13351 3.98759L6.53834 0.609965Z"></path></svg>