<svg width="24" height="24" viewBox="0 0 24 24" fill="currentColor" xmlns="http://www.w3.org/2000/svg"><path fill-rule="evenodd" clip-rule="evenodd" d="M12.7501 4.5C12.7501 4.08579 12.4143 3.75 12.0001 3.75C11.5858 3.75 11.2501 4.08579 11.2501 4.5V5.66863C10.2012 5.80076 9.2676 6.11548 8.44927 6.54094L7.89317 5.61412C7.68005 5.25894 7.21936 5.14377 6.86417 5.35688C6.50899 5.57 6.39382 6.0307 6.60694 6.38588L7.18349 7.34678C6.80871 7.63322 6.46795 7.9405 6.1612 8.25709C5.47185 8.96854 4.95525 9.72603 4.61142 10.3972C4.26587 11.0716 4.1001 11.6485 4.1001 12C4.1001 12.3515 4.26587 12.9284 4.61142 13.6028C4.95525 14.274 5.47185 15.0315 6.1612 15.7429C7.53941 17.1653 9.60408 18.4 12.3572 18.4C15.1104 18.4 17.1751 17.1653 18.5533 15.7429C19.2426 15.0315 19.7592 14.274 20.1031 13.6028C20.4486 12.9284 20.6144 12.3515 20.6144 12C20.6144 11.6485 20.4486 11.0716 20.1031 10.3972C19.7592 9.72603 19.2426 8.96854 18.5533 8.25709C18.1606 7.85181 17.7122 7.46177 17.208 7.11119L17.6432 6.38588C17.8563 6.0307 17.7411 5.57 17.3859 5.35688C17.0308 5.14377 16.5701 5.25894 16.357 5.61412L15.9064 6.36509C14.9883 5.94212 13.9363 5.65988 12.7501 5.60847V4.5ZM12.3572 7.25714C10.4716 7.25714 8.82466 8.05465 7.65013 9.03944C7.06269 9.53199 6.59127 10.0731 6.26599 10.5884C5.94225 11.1011 5.75724 11.5979 5.75724 12C5.75724 12.4021 5.94225 12.8989 6.26599 13.4116C6.59127 13.9269 7.06269 14.468 7.65013 14.9606C8.82465 15.9453 10.4716 16.7429 12.3572 16.7429C14.2414 16.7429 15.8882 15.9855 17.0636 15.0198C17.6514 14.5368 18.1232 14.0002 18.4488 13.477C18.7734 12.9555 18.9572 12.4397 18.9572 12C18.9572 11.5603 18.7734 11.0445 18.4488 10.523C18.1232 9.9998 17.6514 9.46317 17.0636 8.98021C15.8882 8.01447 14.2414 7.25714 12.3572 7.25714ZM14.4501 12.1C14.4501 13.2598 13.5099 14.2 12.3501 14.2C11.1903 14.2 10.2501 13.2598 10.2501 12.1C10.2501 10.9402 11.1903 10 12.3501 10C13.5099 10 14.4501 10.9402 14.4501 12.1Z"></path></svg>