<svg
    xmlns="http://www.w3.org/2000/svg"
    width="44"
    height="24"
    viewBox="0 0 44 24"
    fill="none"
    >
    <path
        fill-rule="evenodd"
        clip-rule="evenodd"
        d="M22.5731 9.83634C22.5515 11.5079 24.0903 12.4407 25.2495 12.9953C26.4405 13.5645 26.8405 13.9294 26.836 14.4382C26.8269 15.2171 25.8859 15.5607 25.0052 15.5741C23.4686 15.5975 22.5754 15.1668 21.8651 14.841L21.3117 17.384C22.0242 17.7065 23.3436 17.9877 24.712 18C27.9236 18 30.0248 16.4434 30.0362 14.0298C30.0487 10.9668 25.7211 10.7971 25.7506 9.42795C25.7609 9.01287 26.1643 8.56982 27.0485 8.45713C27.486 8.40028 28.694 8.35671 30.0635 8.97599L30.601 6.5156C29.8646 6.25223 28.9179 6 27.7395 6C24.7165 6 22.5902 7.57783 22.5731 9.83634ZM35.7662 6.212C35.1798 6.212 34.6855 6.54793 34.465 7.06344L29.8771 17.8192H33.0865L33.7251 16.0862H37.647L38.0175 17.8192H40.8461L38.3777 6.212H35.7662ZM36.2151 9.34759L37.1413 13.7061H34.6047L36.2151 9.34759ZM18.6819 6.212L16.1522 17.8192H19.2104L21.739 6.212H18.6819ZM14.1577 6.212L10.9745 14.1123L9.68685 7.39481C9.53575 6.64501 8.9391 6.212 8.27651 6.212H3.07276L3 6.54904C4.0683 6.77665 5.28203 7.1438 6.01728 7.53658C6.46727 7.77645 6.59576 7.98622 6.74346 8.55645L9.18226 17.8192H12.4144L17.3693 6.212H14.1577Z"
        fill="#B4B5B8"
    ></path>
</svg>