<svg xmlns="http://www.w3.org/2000/svg" width="24" height="24" viewBox="0 0 24 24" fill="none" ><path fill-rule="evenodd" clip-rule="evenodd" d="M12.3801 21H11.6306C7.5612 21 5.5272 21 4.26359 19.7364C3 18.4728 3 16.4388 3 12.3801V11.6198C3 7.56049 3 5.52721 4.26359 4.2636C5.5272 3 7.5612 3 11.6306 3H12.3801C16.4488 3 18.4944 3 19.7472 4.2636C21 5.52721 21 7.56192 21 11.6198V12.3801V12.4825C21.0001 16.4731 21.0001 18.4835 19.7472 19.7364C18.4836 21 16.4488 21 12.3801 21ZM6.04156 8.48273C6.13733 13.162 8.60045 15.9779 12.6591 15.9779H12.8946V13.301C14.372 13.4507 15.475 14.5538 15.925 15.9779H18.0555C17.4773 13.8475 15.9783 12.6696 15.0466 12.2196C15.9783 11.663 17.2951 10.3137 17.6055 8.48273H15.6679C15.2605 9.97097 14.0508 11.3202 12.8946 11.4484V8.48273H10.9239V13.6761C9.72509 13.3787 8.16125 11.92 8.09717 8.48273H6.04156Z" fill="currentColor"></path></svg>