<svg width="24" height="24" fill="none" xmlns="http://www.w3.org/2000/svg"><path d="M18.97 3v10.32l.51-.51V3.5L18.97 3Z" fill="#0B0B0B"/><path d="M14.84 7.65h1.03l1.03-.52V6.6l-2.06 1.04Z" fill="#0B0C0C"/><path d="M18.97 3h-1.55s-.26.66-.52 1.03c-.57.83-2.06 1.55-2.06 1.55v2.07L16.9 6.6v6.2l2.07.51V3Z" fill="#363636"/><path fill-rule="evenodd" clip-rule="evenodd" d="M5 18.5 9.68 4.55l2.46.5a.2.2 0 0 1 .15.13L16.3 17.7a.2.2 0 0 1-.19.26h-2.3l-1.04-2.58h-3.6l-1 2.96a.2.2 0 0 1-.18.13L5 18.5Zm6.04-9.25-1.27 3.8a.2.2 0 0 0 .18.27h2.55a.2.2 0 0 0 .19-.26l-1.27-3.81a.2.2 0 0 0-.38 0Z" fill="#FF3835"/><path d="M8.65 5.06 4.09 18.22a.2.2 0 0 0 .2.26H5L9.68 4.55l-1.03.51ZM11.74 15.39l.98 2.45c.03.08.1.13.19.13h.9l-1.04-2.58h-1.03ZM10.71 10.23l1.03 3.1h.76a.2.2 0 0 0 .19-.27l-1.27-3.81a.2.2 0 0 0-.38 0l-.33.98Z" fill="#990707"/></svg>