<svg xmlns="http://www.w3.org/2000/svg" viewBox="0 0 24 24" width="24" height="24" fill="none" data-testid="icon"><path d="m11.2 16.9c0 0.442 0.3585 0.8003 0.8005 0.8 0.4416-3e-4 0.7995-0.3584 0.7995-0.8v-0.0741h-1.6v0.0741zm3 0v-0.0741h1.9856 6e-4 6e-4 1.3949c0.292 0 0.5533-0.1813 0.6556-0.4547 0.1024-0.2735 0.0242-0.5818-0.1961-0.7734l-1.082-0.9414c-0.0235-0.0204-0.0478-0.0389-0.073-0.0556v-4.1503c0-2.2128-1.5292-4.0684-3.5885-4.5678v-0.20303c0-0.71684-0.5811-1.298-1.298-1.298-0.7168 0-1.2979 0.58112-1.2979 1.298v0.20305c-2.0593 0.49937-3.5884 2.355-3.5884 4.5677v4.1501c-0.02526 0.0168-0.04973 0.0354-0.07322 0.0558l-1.0818 0.9414c-0.22025 0.1917-0.2984 0.5-0.19607 0.7734 0.10232 0.2735 0.36363 0.4547 0.6556 0.4547h3.382v0.0741c0 1.2156 0.98583 2.2008 2.2014 2.2 1.2145-8e-4 2.1986-0.9856 2.1986-2.2zm1.2862-1.4741v-4.9754c0-1.8225-1.4774-3.3-3.3-3.3h-0.3728c-1.8226 0-3.3 1.4775-3.3 3.3v4.9754h6.9728z" clip-rule="evenodd" fill-rule="evenodd" fill="currentColor"></path></svg>