<svg xmlns="http://www.w3.org/2000/svg" viewBox="0 0 24 24" width="24" height="24" fill="none" data-testid="icon" class=""><path xmlns="http://www.w3.org/2000/svg" fill-rule="evenodd" clip-rule="evenodd" d="M12 17C14.7614 17 17 14.7614 17 12C17 9.23858 14.7614 7 12 7C9.23858 7 7 9.23858 7 12C7 14.7614 9.23858 17 12 17ZM12 18C15.3137 18 18 15.3137 18 12C18 8.68629 15.3137 6 12 6C8.68629 6 6 8.68629 6 12C6 15.3137 8.68629 18 12 18ZM12.8571 14.5714C12.8571 15.0448 12.4734 15.4286 12 15.4286C11.5266 15.4286 11.1429 15.0448 11.1429 14.5714C11.1429 14.098 11.5266 13.7143 12 13.7143C12.4734 13.7143 12.8571 14.098 12.8571 14.5714ZM12.8571 9H11.1429V12.8571H12.8571V9Z" fill="currentColor"></path></svg>