<svg xmlns="http://www.w3.org/2000/svg" viewBox="0 0 24 24" width="24" height="24" fill="none" data-testid="icon" class=""><path d="M4 15.9V15.7723C4 15.5033 4 15.3688 4.02058 15.2378C4.03885 15.1214 4.06916 15.0073 4.11102 14.8972C4.15817 14.7732 4.22491 14.6564 4.35838 14.4228L7.4 9.1M4 15.9C4 17.7778 5.52223 19.3 7.4 19.3C9.27777 19.3 10.8 17.7778 10.8 15.9M4 15.9V15.73C4 15.492 4 15.373 4.04632 15.2821C4.08707 15.2021 4.15209 15.1371 4.23205 15.0963C4.32297 15.05 4.44198 15.05 4.68 15.05H10.12C10.358 15.05 10.477 15.05 10.5679 15.0963C10.6479 15.1371 10.7129 15.2021 10.7537 15.2821C10.8 15.373 10.8 15.492 10.8 15.73V15.9M7.4 9.1L10.4416 14.4228C10.5751 14.6564 10.6418 14.7732 10.689 14.8972C10.7308 15.0073 10.7612 15.1214 10.7794 15.2378C10.8 15.3688 10.8 15.5033 10.8 15.7723V15.9M7.4 9.1L17.6 7.4M14.2 14.2V14.0723C14.2 13.8033 14.2 13.6688 14.2206 13.5378C14.2388 13.4214 14.2692 13.3073 14.311 13.1972C14.3582 13.0732 14.4249 12.9564 14.5584 12.7228L17.6 7.4M14.2 14.2C14.2 16.0778 15.7222 17.6 17.6 17.6C19.4778 17.6 21 16.0778 21 14.2M14.2 14.2V14.03C14.2 13.792 14.2 13.673 14.2463 13.5821C14.2871 13.5021 14.3521 13.4371 14.4321 13.3963C14.523 13.35 14.642 13.35 14.88 13.35H20.32C20.558 13.35 20.677 13.35 20.7679 13.3963C20.8479 13.4371 20.9129 13.5021 20.9537 13.5821C21 13.673 21 13.792 21 14.03V14.2M17.6 7.4L20.6416 12.7228C20.7751 12.9564 20.8418 13.0732 20.889 13.1972C20.9308 13.3073 20.9612 13.4214 20.9794 13.5378C21 13.6688 21 13.8033 21 14.0723V14.2M12.5 4V8.25" stroke="currentColor" stroke-width="1.6" stroke-linecap="round" stroke-linejoin="round"></path></svg>