<svg xmlns="http://www.w3.org/2000/svg" width="24" height="24" viewBox="0 0 24 24" fill="none"><path d="M16.54 15.76H9.76M8.05 17.3a1.54 1.54 0 1 0 0-3.08 1.54 1.54 0 0 0 0 3.09ZM18.08 17.3a1.54 1.54 0 1 0 0-3.08 1.54 1.54 0 0 0 0 3.09Z" stroke="currentColor" stroke-width="1.4" stroke-linecap="round" stroke-linejoin="round"></path><path d="M6.42 15.76H4.76a.57.57 0 0 1-.57-.57V7.06a.56.56 0 0 1 .55-.56h10.94a1.46 1.46 0 0 1 1.25.71l1.93 3.15.66.22a2.44 2.44 0 0 1 1.67 2.32v2.32a.58.58 0 0 1-.58.58h-1.16" stroke="currentColor" stroke-width="1.4" stroke-linecap="round" stroke-linejoin="round"></path><path d="M18.83 10.36h-5.4V6.5" stroke="currentColor" stroke-width="1.4" stroke-linecap="round" stroke-linejoin="round"></path></svg>