<svg width="24" height="24" viewBox="0 0 24 24" fill="none" xmlns="http://www.w3.org/2000/svg">
<path fill-rule="evenodd" clip-rule="evenodd" d="M19.5 17H5.5V7H19.5V17ZM4 17.5V6.5C4 5.94772 4.44772 5.5 5 5.5H20C20.5523 5.5 21 5.94772 21 6.5V17.5C21 18.0523 20.5523 18.5 20 18.5H5C4.44772 18.5 4 18.0523 4 17.5ZM8.03464 9C7.66903 9 7.49504 9.45004 7.76557 9.69598L12.2309 13.7554C12.3835 13.8941 12.6165 13.8941 12.7691 13.7554L17.2344 9.69598C17.505 9.45004 17.331 9 16.9654 9H8.03464Z" fill="currentColor"/>
</svg>
