<svg
    xmlns="http://www.w3.org/2000/svg"
    width="52"
    height="24"
    viewBox="0 0 52 24"
    fill="none"
    >
    <path
        d="M21.8349 11.8828H25.1964C24.9515 11.1229 24.3207 10.6337 23.5094 10.6337C22.7366 10.6337 22.0795 11.1229 21.8349 11.8828ZM26.2008 10.3372C26.8707 11.1488 27.1155 12.1019 26.9349 13.2095H21.8091C22.0539 14.0207 22.7366 14.5488 23.6253 14.5488C24.3851 14.5488 24.9262 14.2398 25.2738 13.6217L26.7032 14.2655C26.0978 15.3474 24.9646 16.0427 23.5738 16.0427C22.5563 16.0427 21.7189 15.7079 21.0365 15.0512C20.3538 14.3943 20.019 13.57 20.019 12.5911C20.019 11.6124 20.3538 10.7882 21.0236 10.1314C21.693 9.47453 22.5178 9.13971 23.5094 9.13971C24.6297 9.13971 25.5184 9.53882 26.2008 10.3372Z"
        fill="#B4B5B8"
    ></path>
    <path
        d="M31.3317 14.4588C31.8341 14.4588 32.2461 14.2785 32.5811 13.9179C32.9156 13.5702 33.0833 13.1195 33.0833 12.5914C33.0833 12.0633 32.9156 11.6126 32.5811 11.2649C32.2461 10.917 31.8341 10.7367 31.3317 10.7367C30.8294 10.7367 30.4171 10.917 30.0824 11.2649C29.7476 11.6255 29.58 12.0633 29.58 12.5914C29.58 13.1195 29.7476 13.5702 30.0824 13.9179C30.4171 14.2785 30.8294 14.4588 31.3317 14.4588ZM33.9718 10.1313C34.5772 10.7884 34.8861 11.6126 34.8861 12.5914C34.8861 13.5702 34.5772 14.3944 33.9718 15.0511C33.3666 15.7082 32.6066 16.0429 31.6923 16.0429C30.8423 16.0429 30.1337 15.734 29.58 15.1285V18.49H27.8413V9.26857H29.58V10.0541C30.1337 9.44883 30.8423 9.13971 31.6923 9.13971C32.6066 9.13971 33.3666 9.47462 33.9718 10.1313Z"
        fill="#B4B5B8"
    ></path>
    <path
        d="M37.4921 13.376L40.6603 9.26752H42.3475V15.9133H40.6086V11.8048L37.4406 15.9133H35.7534V9.26752H37.4921V13.376Z"
        fill="#B4B5B8"
    ></path>
    <path
        d="M45.4933 15.9132H43.7544V9.26752H50.117V15.9132H48.378V10.8002H45.4933V15.9132Z"
        fill="#B4B5B8"
    ></path>
    <path
        d="M6.34013 3.9845L10.1341 8.62266L11.462 6.99124C11.794 6.58339 11.7845 5.99532 11.462 5.59695L10.4756 4.39235C10.2574 4.13626 9.94444 3.9845 9.62195 3.9845H6.34013ZM0.639648 3.9845L6.33065 10.9465L8.22765 8.62266L4.44313 3.9845H0.639648Z"
        fill="#B4B5B8"
    ></path>
    <path
        d="M6.60372 19.8474L9.87489 19.8431C10.2055 19.8422 10.5243 19.691 10.7309 19.439L16.1631 12.8077C16.4907 12.396 16.491 11.815 16.1574 11.4051L14.8252 9.7831L6.60372 19.8474Z"
        fill="#B4B5B8"
    ></path>
    <path
        d="M11.4588 6.99008C11.4481 7.00419 10.1158 8.61623 10.1158 8.61623L0.920878 19.8445L4.73862 19.8487L13.3352 9.32238C13.6842 8.92034 13.6799 8.33951 13.3454 7.93062L11.4443 5.60173C11.7646 5.99993 11.783 6.59145 11.4588 6.99008Z"
        fill="#B4B5B8"
    ></path>
</svg>