<svg xmlns="http://www.w3.org/2000/svg" width="12" height="12" viewBox="0 0 12 12" fill="none"><path fill-rule="evenodd" clip-rule="evenodd" d="M6 11C8.76142 11 11 8.76142 11 6C11 3.23858 8.76142 1 6 1C3.23858 1 1 3.23858 1 6C1 8.76142 3.23858 11 6 11ZM6 12C9.31371 12 12 9.31371 12 6C12 2.68629 9.31371 0 6 0C2.68629 0 0 2.68629 0 6C0 9.31371 2.68629 12 6 12ZM6.85714 8.57143C6.85714 9.04482 6.47339 9.42857 6 9.42857C5.52661 9.42857 5.14286 9.04482 5.14286 8.57143C5.14286 8.09804 5.52661 7.71429 6 7.71429C6.47339 7.71429 6.85714 8.09804 6.85714 8.57143ZM6.85714 3H5.14286V6.85714H6.85714V3Z" fill="#D62761"></path></svg>