<svg xmlns="http://www.w3.org/2000/svg" viewBox="0 0 24 24" width="24" height="24" fill="none" data-testid="icon" class=""><path d="M18.5422 4.45787L4.40009 18.6L5.53146 19.7314L19.6736 5.58924L18.5422 4.45787Z" fill="currentColor"></path><path d="M12.0008 7.33333C12.6575 7.33333 13.2808 7.4858 13.8409 7.75911L15.8292 5.77082C14.6443 5.2734 13.3528 5 12.0008 5C8.19581 5 4.87064 7.16515 3.05268 10.3951C2.90057 10.6654 2.7126 11.0589 2.48874 11.5758C2.37135 11.8468 2.37042 12.1541 2.48616 12.4258C2.65578 12.824 2.79783 13.1313 2.9123 13.3477C3.51759 14.4919 4.309 15.5105 5.24311 16.3569L7.89779 13.7022C7.70245 13.1747 7.59517 12.6006 7.59517 12C7.59517 9.424 9.56888 7.33333 12.0008 7.33333Z" fill="currentColor"></path><path d="M12.0008 19C10.7266 19 9.50621 18.7572 8.37822 18.3129L10.3595 16.3317C10.8668 16.5477 11.4208 16.6667 12.0008 16.6667C14.4327 16.6667 16.4064 14.576 16.4064 12C16.4064 11.4803 16.326 10.9804 16.1778 10.5133L18.909 7.78219C19.6853 8.51324 20.358 9.36547 20.9009 10.3108C21.0658 10.598 21.2692 11.0191 21.511 11.574C21.6295 11.846 21.6305 12.1548 21.5139 12.4275C21.3327 12.8514 21.1808 13.1774 21.0583 13.4057C19.2665 16.7455 15.8834 19 12.0008 19Z" fill="currentColor"></path><path d="M12.0008 14.8C11.9648 14.8 11.929 14.7992 11.8934 14.7977L14.6438 12.0474C14.62 13.5748 13.4485 14.8 12.0008 14.8Z" fill="currentColor"></path><path d="M12.3726 9.22734L9.36642 12.2336C9.36045 12.1566 9.35741 12.0787 9.35741 12C9.35741 10.4507 10.5381 9.2 12.0008 9.2C12.127 9.2 12.2512 9.20932 12.3726 9.22734Z" fill="currentColor"></path></svg>