<svg class="ButtonsBlock_favoriteIcon__BpfLs" width="24" height="24" viewBox="0 0 24 24" fill="none" xmlns="http://www.w3.org/2000/svg"><path d="M6.54 7.67c-.46.55-.74 1.3-.74 2.02 0 .34.15.8.53 1.4.36.57.9 1.2 1.54 1.89.8.84 1.7 1.68 2.6 2.53.49.45.98.9 1.45 1.37l1.46-1.37c.9-.85 1.8-1.69 2.6-2.53.64-.68 1.17-1.32 1.54-1.9.37-.6.53-1.05.53-1.39 0-.73-.28-1.47-.74-2.02a2.21 2.21 0 0 0-1.7-.87c-1.49 0-2.2.7-3.12 1.61a.8.8 0 0 1-1.13 0C10.44 7.5 9.73 6.8 8.23 6.8c-.64 0-1.24.32-1.7.87ZM5.3 6.64A3.81 3.81 0 0 1 8.23 5.2a5.1 5.1 0 0 1 3.7 1.53 5.09 5.09 0 0 1 3.69-1.53c1.2 0 2.22.6 2.92 1.44.7.83 1.1 1.94 1.1 3.05 0 .78-.33 1.54-.77 2.24a14.5 14.5 0 0 1-1.73 2.15c-.82.86-1.8 1.78-2.74 2.66-.57.54-1.13 1.06-1.63 1.55a1.2 1.2 0 0 1-1.7 0l-1.62-1.55c-.95-.88-1.93-1.8-2.75-2.66a14.5 14.5 0 0 1-1.73-2.15A4.32 4.32 0 0 1 4.2 9.7c0-1.11.41-2.22 1.1-3.05Z"></path></svg>