<svg xmlns="http://www.w3.org/2000/svg" width="24" height="24" viewBox="0 0 24 24" fill="none"><path d="m19.652 7.6836v3.4783h-15.304v-3.4783h15.304z" stroke="currentColor" stroke-linejoin="round" stroke-width="1.4"></path><path d="m12 7.6836v11.826" stroke="currentColor" stroke-linejoin="round" stroke-width="1.4"></path><path d="m5.739 19.509v-8.3479h12.522v8.3479h-12.522z" stroke="currentColor" stroke-linejoin="round" stroke-width="1.4"></path><path d="m12.564 7.1422c-0.0389-0.14844-0.9832-3.633-3.7402-3.633-1.1994 0-2.1752 0.97578-2.1752 2.1752 0 1.1994 0.96721 2.1752 2.1561 2.1752h3.2056c0.1772 0 0.3448-0.08224 0.4531-0.22269 0.1084-0.14044 0.1454-0.32321 0.1006-0.49473zm-3.7592-0.42741c-0.56707 0-1.0113-0.45261-1.0113-1.0304 0-0.55849 0.47188-1.0304 1.0304-1.0304 1.2561 0 2.0083 1.2374 2.3699 2.0607h-2.389v3e-5z" fill="currentColor" stroke="currentColor" stroke-width=".4"></path><path d="m15.196 3.5093c-2.7569 0-3.7012 3.4845-3.7402 3.633-0.045 0.17153-0.0078 0.35433 0.1006 0.49478 0.1084 0.14044 0.2757 0.22268 0.4532 0.22268h3.2055c1.1889 0 2.1561-0.97578 2.1561-2.1752 1e-4 -1.1994-0.9757-2.1752-2.1752-2.1752zm0.0192 3.2056h-2.3912c0.3589-0.82333 1.1088-2.0607 2.3723-2.0607 0.5585 0 1.0303 0.47188 1.0303 1.0304 0 0.57772-0.4442 1.0303-1.0114 1.0303z" fill="currentColor" stroke="currentColor" stroke-width=".4"></path></svg>