<svg xmlns="http://www.w3.org/2000/svg" width="24" height="24" viewBox="0 0 24 24" fill="none" ><path fill-rule="evenodd" clip-rule="evenodd" d="M12.0053 4.62165C14.4114 4.62165 14.6963 4.63221 15.6426 4.67442C16.522 4.71311 16.9969 4.86086 17.3135 4.98398C17.7321 5.14579 18.0346 5.34278 18.3477 5.65585C18.6643 5.97244 18.8577 6.27145 19.0195 6.69005C19.1427 7.00664 19.2904 7.48505 19.3291 8.36095C19.3713 9.31073 19.3819 9.59566 19.3819 11.9982C19.3819 14.4043 19.3713 14.6893 19.3291 15.6355C19.2904 16.515 19.1427 16.9898 19.0195 17.3064C18.8577 17.725 18.6607 18.0276 18.3477 18.3406C18.0311 18.6572 17.7321 18.8507 17.3135 19.0125C16.9969 19.1356 16.5185 19.2834 15.6426 19.3221C14.6928 19.3643 14.4079 19.3748 12.0053 19.3748C9.59918 19.3748 9.31425 19.3643 8.36799 19.3221C7.48857 19.2834 7.01368 19.1356 6.69709 19.0125C6.27848 18.8507 5.97596 18.6537 5.66289 18.3406C5.3463 18.024 5.15282 17.725 4.99101 17.3064C4.86789 16.9898 4.72015 16.5114 4.68145 15.6355C4.63924 14.6858 4.62869 14.4008 4.62869 11.9982C4.62869 9.59214 4.63924 9.30721 4.68145 8.36095C4.72015 7.48153 4.86789 7.00664 4.99101 6.69005C5.15282 6.27145 5.34981 5.96893 5.66289 5.65585C5.97948 5.33926 6.27848 5.14579 6.69709 4.98398C7.01368 4.86086 7.49209 4.71311 8.36799 4.67442C9.31425 4.63221 9.59918 4.62165 12.0053 4.62165ZM12.0053 3C9.56048 3 9.25445 3.01055 8.29412 3.05277C7.33731 3.09498 6.6795 3.24976 6.10963 3.47137C5.51515 3.70354 5.01212 4.00958 4.51261 4.51261C4.00958 5.01212 3.70354 5.51515 3.47137 6.10612C3.24976 6.6795 3.09498 7.33379 3.05277 8.2906C3.01055 9.25445 3 9.56048 3 12.0053C3 14.4501 3.01055 14.7561 3.05277 15.7164C3.09498 16.6732 3.24976 17.3311 3.47137 17.9009C3.70354 18.4954 4.00958 18.9984 4.51261 19.4979C5.01212 19.9975 5.51515 20.307 6.10612 20.5357C6.6795 20.7573 7.33379 20.9121 8.2906 20.9543C9.25093 20.9965 9.55697 21.007 12.0018 21.007C14.4466 21.007 14.7526 20.9965 15.7129 20.9543C16.6697 20.9121 17.3275 20.7573 17.8974 20.5357C18.4884 20.307 18.9914 19.9975 19.4909 19.4979C19.9904 18.9984 20.3 18.4954 20.5286 17.9044C20.7502 17.3311 20.905 16.6768 20.9472 15.72C20.9894 14.7596 21 14.4536 21 12.0088C21 9.564 20.9894 9.25796 20.9472 8.29764C20.905 7.34083 20.7502 6.68302 20.5286 6.11315C20.307 5.51515 20.001 5.01212 19.4979 4.51261C18.9984 4.01309 18.4954 3.70354 17.9044 3.47489C17.3311 3.25327 16.6768 3.0985 15.72 3.05628C14.7561 3.01055 14.4501 3 12.0053 3ZM12.0053 7.3795C9.45147 7.3795 7.37955 9.45142 7.37955 12.0053C7.37955 14.5591 9.45147 16.631 12.0053 16.631C14.5591 16.631 16.6311 14.5591 16.6311 12.0053C16.6311 9.45142 14.5591 7.3795 12.0053 7.3795ZM12.0053 15.0058C10.3485 15.0058 9.00472 13.6621 9.00472 12.0053C9.00472 10.3484 10.3485 9.00467 12.0053 9.00467C13.6621 9.00467 15.0059 10.3484 15.0059 12.0053C15.0059 13.6621 13.6621 15.0058 12.0053 15.0058ZM16.8139 8.27648C17.4084 8.27648 17.8938 7.79456 17.8938 7.19655C17.8938 6.60206 17.4084 6.11662 16.8139 6.11662C16.2194 6.11662 15.734 6.59855 15.734 7.19655C15.734 7.79104 16.2159 8.27648 16.8139 8.27648Z" fill="url(#paint0_linear_2041_1683)"></path><path fill-rule="evenodd" clip-rule="evenodd" d="M12.0053 4.62165C14.4114 4.62165 14.6963 4.63221 15.6426 4.67442C16.522 4.71311 16.9969 4.86086 17.3135 4.98398C17.7321 5.14579 18.0346 5.34278 18.3477 5.65585C18.6643 5.97244 18.8577 6.27145 19.0195 6.69005C19.1427 7.00664 19.2904 7.48505 19.3291 8.36095C19.3713 9.31073 19.3819 9.59566 19.3819 11.9982C19.3819 14.4043 19.3713 14.6893 19.3291 15.6355C19.2904 16.515 19.1427 16.9898 19.0195 17.3064C18.8577 17.725 18.6607 18.0276 18.3477 18.3406C18.0311 18.6572 17.7321 18.8507 17.3135 19.0125C16.9969 19.1356 16.5185 19.2834 15.6426 19.3221C14.6928 19.3643 14.4079 19.3748 12.0053 19.3748C9.59918 19.3748 9.31425 19.3643 8.36799 19.3221C7.48857 19.2834 7.01368 19.1356 6.69709 19.0125C6.27848 18.8507 5.97596 18.6537 5.66289 18.3406C5.3463 18.024 5.15282 17.725 4.99101 17.3064C4.86789 16.9898 4.72015 16.5114 4.68145 15.6355C4.63924 14.6858 4.62869 14.4008 4.62869 11.9982C4.62869 9.59214 4.63924 9.30721 4.68145 8.36095C4.72015 7.48153 4.86789 7.00664 4.99101 6.69005C5.15282 6.27145 5.34981 5.96893 5.66289 5.65585C5.97948 5.33926 6.27848 5.14579 6.69709 4.98398C7.01368 4.86086 7.49209 4.71311 8.36799 4.67442C9.31425 4.63221 9.59918 4.62165 12.0053 4.62165ZM12.0053 3C9.56048 3 9.25445 3.01055 8.29412 3.05277C7.33731 3.09498 6.6795 3.24976 6.10963 3.47137C5.51515 3.70354 5.01212 4.00958 4.51261 4.51261C4.00958 5.01212 3.70354 5.51515 3.47137 6.10612C3.24976 6.6795 3.09498 7.33379 3.05277 8.2906C3.01055 9.25445 3 9.56048 3 12.0053C3 14.4501 3.01055 14.7561 3.05277 15.7164C3.09498 16.6732 3.24976 17.3311 3.47137 17.9009C3.70354 18.4954 4.00958 18.9984 4.51261 19.4979C5.01212 19.9975 5.51515 20.307 6.10612 20.5357C6.6795 20.7573 7.33379 20.9121 8.2906 20.9543C9.25093 20.9965 9.55697 21.007 12.0018 21.007C14.4466 21.007 14.7526 20.9965 15.7129 20.9543C16.6697 20.9121 17.3275 20.7573 17.8974 20.5357C18.4884 20.307 18.9914 19.9975 19.4909 19.4979C19.9904 18.9984 20.3 18.4954 20.5286 17.9044C20.7502 17.3311 20.905 16.6768 20.9472 15.72C20.9894 14.7596 21 14.4536 21 12.0088C21 9.564 20.9894 9.25796 20.9472 8.29764C20.905 7.34083 20.7502 6.68302 20.5286 6.11315C20.307 5.51515 20.001 5.01212 19.4979 4.51261C18.9984 4.01309 18.4954 3.70354 17.9044 3.47489C17.3311 3.25327 16.6768 3.0985 15.72 3.05628C14.7561 3.01055 14.4501 3 12.0053 3ZM12.0053 7.3795C9.45147 7.3795 7.37955 9.45142 7.37955 12.0053C7.37955 14.5591 9.45147 16.631 12.0053 16.631C14.5591 16.631 16.6311 14.5591 16.6311 12.0053C16.6311 9.45142 14.5591 7.3795 12.0053 7.3795ZM12.0053 15.0058C10.3485 15.0058 9.00472 13.6621 9.00472 12.0053C9.00472 10.3484 10.3485 9.00467 12.0053 9.00467C13.6621 9.00467 15.0059 10.3484 15.0059 12.0053C15.0059 13.6621 13.6621 15.0058 12.0053 15.0058ZM16.8139 8.27648C17.4084 8.27648 17.8938 7.79456 17.8938 7.19655C17.8938 6.60206 17.4084 6.11662 16.8139 6.11662C16.2194 6.11662 15.734 6.59855 15.734 7.19655C15.734 7.79104 16.2159 8.27648 16.8139 8.27648Z" fill="url(#paint1_radial_2041_1683)"></path><path fill-rule="evenodd" clip-rule="evenodd" d="M12.0053 4.62165C14.4114 4.62165 14.6963 4.63221 15.6426 4.67442C16.522 4.71311 16.9969 4.86086 17.3135 4.98398C17.7321 5.14579 18.0346 5.34278 18.3477 5.65585C18.6643 5.97244 18.8577 6.27145 19.0195 6.69005C19.1427 7.00664 19.2904 7.48505 19.3291 8.36095C19.3713 9.31073 19.3819 9.59566 19.3819 11.9982C19.3819 14.4043 19.3713 14.6893 19.3291 15.6355C19.2904 16.515 19.1427 16.9898 19.0195 17.3064C18.8577 17.725 18.6607 18.0276 18.3477 18.3406C18.0311 18.6572 17.7321 18.8507 17.3135 19.0125C16.9969 19.1356 16.5185 19.2834 15.6426 19.3221C14.6928 19.3643 14.4079 19.3748 12.0053 19.3748C9.59918 19.3748 9.31425 19.3643 8.36799 19.3221C7.48857 19.2834 7.01368 19.1356 6.69709 19.0125C6.27848 18.8507 5.97596 18.6537 5.66289 18.3406C5.3463 18.024 5.15282 17.725 4.99101 17.3064C4.86789 16.9898 4.72015 16.5114 4.68145 15.6355C4.63924 14.6858 4.62869 14.4008 4.62869 11.9982C4.62869 9.59214 4.63924 9.30721 4.68145 8.36095C4.72015 7.48153 4.86789 7.00664 4.99101 6.69005C5.15282 6.27145 5.34981 5.96893 5.66289 5.65585C5.97948 5.33926 6.27848 5.14579 6.69709 4.98398C7.01368 4.86086 7.49209 4.71311 8.36799 4.67442C9.31425 4.63221 9.59918 4.62165 12.0053 4.62165ZM12.0053 3C9.56048 3 9.25445 3.01055 8.29412 3.05277C7.33731 3.09498 6.6795 3.24976 6.10963 3.47137C5.51515 3.70354 5.01212 4.00958 4.51261 4.51261C4.00958 5.01212 3.70354 5.51515 3.47137 6.10612C3.24976 6.6795 3.09498 7.33379 3.05277 8.2906C3.01055 9.25445 3 9.56048 3 12.0053C3 14.4501 3.01055 14.7561 3.05277 15.7164C3.09498 16.6732 3.24976 17.3311 3.47137 17.9009C3.70354 18.4954 4.00958 18.9984 4.51261 19.4979C5.01212 19.9975 5.51515 20.307 6.10612 20.5357C6.6795 20.7573 7.33379 20.9121 8.2906 20.9543C9.25093 20.9965 9.55697 21.007 12.0018 21.007C14.4466 21.007 14.7526 20.9965 15.7129 20.9543C16.6697 20.9121 17.3275 20.7573 17.8974 20.5357C18.4884 20.307 18.9914 19.9975 19.4909 19.4979C19.9904 18.9984 20.3 18.4954 20.5286 17.9044C20.7502 17.3311 20.905 16.6768 20.9472 15.72C20.9894 14.7596 21 14.4536 21 12.0088C21 9.564 20.9894 9.25796 20.9472 8.29764C20.905 7.34083 20.7502 6.68302 20.5286 6.11315C20.307 5.51515 20.001 5.01212 19.4979 4.51261C18.9984 4.01309 18.4954 3.70354 17.9044 3.47489C17.3311 3.25327 16.6768 3.0985 15.72 3.05628C14.7561 3.01055 14.4501 3 12.0053 3ZM12.0053 7.3795C9.45147 7.3795 7.37955 9.45142 7.37955 12.0053C7.37955 14.5591 9.45147 16.631 12.0053 16.631C14.5591 16.631 16.6311 14.5591 16.6311 12.0053C16.6311 9.45142 14.5591 7.3795 12.0053 7.3795ZM12.0053 15.0058C10.3485 15.0058 9.00472 13.6621 9.00472 12.0053C9.00472 10.3484 10.3485 9.00467 12.0053 9.00467C13.6621 9.00467 15.0059 10.3484 15.0059 12.0053C15.0059 13.6621 13.6621 15.0058 12.0053 15.0058ZM16.8139 8.27648C17.4084 8.27648 17.8938 7.79456 17.8938 7.19655C17.8938 6.60206 17.4084 6.11662 16.8139 6.11662C16.2194 6.11662 15.734 6.59855 15.734 7.19655C15.734 7.79104 16.2159 8.27648 16.8139 8.27648Z" fill="url(#paint2_linear_2041_1683)" fill-opacity="0.7"></path><defs><linearGradient id="paint0_linear_2041_1683" x1="5" y1="4" x2="19" y2="20.5" gradientUnits="userSpaceOnUse"><stop stop-color="#6820F5"></stop><stop offset="0.298583" stop-color="#C329D8"></stop><stop offset="0.548305" stop-color="#EB4946"></stop></linearGradient><radialGradient id="paint1_radial_2041_1683" cx="0" cy="0" r="1" gradientUnits="userSpaceOnUse" gradientTransform="translate(10 21) rotate(-57.6526) scale(17.7553 17.7483)"><stop offset="0.19818" stop-color="#EEC83D"></stop><stop offset="1" stop-color="#E95643" stop-opacity="0"></stop></radialGradient><linearGradient id="paint2_linear_2041_1683" x1="9.5" y1="7.5" x2="11.5" y2="16.5" gradientUnits="userSpaceOnUse"><stop stop-color="#EA337F" stop-opacity="0"></stop><stop offset="0.29" stop-color="#EA337F"></stop><stop offset="0.695" stop-color="#EB464E"></stop><stop offset="0.995" stop-color="#EB464E" stop-opacity="0"></stop></linearGradient></defs></svg>