<svg
    xmlns="http://www.w3.org/2000/svg"
    width="32"
    height="24"
    viewBox="0 0 32 24"
    fill="none"
    >
        <path
            d="M6.60087 23.9474V22.3546C6.60087 21.7454 6.22973 21.3464 5.59262 21.3464C5.27406 21.3464 4.92767 21.4515 4.68952 21.7979C4.50396 21.5072 4.23798 21.3464 3.83901 21.3464C3.57303 21.3464 3.30705 21.4268 3.09674 21.7175V21.399H2.54004V23.9474H3.09674V22.5402C3.09674 22.0887 3.33488 21.8753 3.70602 21.8753C4.07715 21.8753 4.26272 22.1134 4.26272 22.5402V23.9474H4.81942V22.5402C4.81942 22.0887 5.0854 21.8753 5.4287 21.8753C5.79983 21.8753 5.9854 22.1134 5.9854 22.5402V23.9474H6.60087ZM14.8586 21.399H13.9555V20.6289H13.3988V21.399H12.8947V21.9031H13.3988V23.0722C13.3988 23.6567 13.637 24 14.2741 24C14.5122 24 14.7782 23.9196 14.9638 23.8144L14.8029 23.335C14.6421 23.4402 14.4565 23.468 14.3236 23.468C14.0576 23.468 13.9524 23.3072 13.9524 23.0443V21.9031H14.8555V21.399H14.8586ZM19.5844 21.3433C19.2658 21.3433 19.0524 21.5041 18.9194 21.7144V21.3959H18.3627V23.9443H18.9194V22.5093C18.9194 22.0856 19.105 21.8443 19.4514 21.8443C19.5565 21.8443 19.6895 21.8722 19.7978 21.8969L19.9586 21.3649C19.8473 21.3433 19.6895 21.3433 19.5844 21.3433ZM12.4431 21.6093C12.1772 21.4237 11.806 21.3433 11.4071 21.3433C10.7699 21.3433 10.3462 21.6619 10.3462 22.166C10.3462 22.5897 10.6648 22.8309 11.2215 22.9082L11.4875 22.9361C11.7782 22.9887 11.939 23.0691 11.939 23.2021C11.939 23.3876 11.7256 23.5206 11.3545 23.5206C10.9833 23.5206 10.6895 23.3876 10.504 23.2546L10.238 23.6783C10.5287 23.8917 10.9277 23.9969 11.3266 23.9969C12.0689 23.9969 12.4957 23.6505 12.4957 23.1742C12.4957 22.7227 12.1493 22.4845 11.6205 22.4041L11.3545 22.3763C11.1163 22.3484 10.9308 22.2959 10.9308 22.1381C10.9308 21.9526 11.1163 21.8474 11.4101 21.8474C11.7287 21.8474 12.0473 21.9804 12.2081 22.0608L12.4431 21.6093ZM27.2545 21.3433C26.9359 21.3433 26.7225 21.5041 26.5895 21.7144V21.3959H26.0328V23.9443H26.5895V22.5093C26.5895 22.0856 26.7751 21.8443 27.1215 21.8443C27.2267 21.8443 27.3596 21.8722 27.4679 21.8969L27.6287 21.3711C27.5205 21.3433 27.3627 21.3433 27.2545 21.3433ZM20.1411 22.6732C20.1411 23.4433 20.673 24 21.4957 24C21.8669 24 22.1328 23.9196 22.3988 23.7093L22.1328 23.2577C21.9194 23.4186 21.7091 23.4959 21.4679 23.4959C21.0163 23.4959 20.6978 23.1773 20.6978 22.6732C20.6978 22.1938 21.0163 21.8753 21.4679 21.8505C21.706 21.8505 21.9194 21.9309 22.1328 22.0887L22.3988 21.6371C22.1328 21.4237 21.8669 21.3464 21.4957 21.3464C20.673 21.3433 20.1411 21.9031 20.1411 22.6732ZM25.2906 22.6732V21.399H24.7339V21.7175C24.5483 21.4794 24.2823 21.3464 23.9359 21.3464C23.2184 21.3464 22.6617 21.9031 22.6617 22.6732C22.6617 23.4433 23.2184 24 23.9359 24C24.3071 24 24.573 23.867 24.7339 23.6289V23.9474H25.2906V22.6732ZM23.2462 22.6732C23.2462 22.2216 23.537 21.8505 24.0163 21.8505C24.4679 21.8505 24.7864 22.1969 24.7864 22.6732C24.7864 23.1247 24.4679 23.4959 24.0163 23.4959C23.5401 23.468 23.2462 23.1216 23.2462 22.6732ZM16.5844 21.3433C15.8421 21.3433 15.3102 21.8753 15.3102 22.6701C15.3102 23.468 15.8421 23.9969 16.6122 23.9969C16.9833 23.9969 17.3545 23.8917 17.6483 23.6505L17.3823 23.2515C17.1689 23.4124 16.9029 23.5175 16.64 23.5175C16.2937 23.5175 15.9504 23.3567 15.8699 22.9082H17.7535C17.7535 22.8278 17.7535 22.7753 17.7535 22.6948C17.7782 21.8753 17.2988 21.3433 16.5844 21.3433ZM16.5844 21.8227C16.9308 21.8227 17.1689 22.0361 17.2215 22.432H15.8947C15.9473 22.0887 16.1854 21.8227 16.5844 21.8227ZM30.4153 22.6732V20.3907H29.8586V21.7175C29.673 21.4794 29.4071 21.3464 29.0607 21.3464C28.3431 21.3464 27.7864 21.9031 27.7864 22.6732C27.7864 23.4433 28.3431 24 29.0607 24C29.4318 24 29.6978 23.867 29.8586 23.6289V23.9474H30.4153V22.6732ZM28.371 22.6732C28.371 22.2216 28.6617 21.8505 29.1411 21.8505C29.5926 21.8505 29.9112 22.1969 29.9112 22.6732C29.9112 23.1247 29.5926 23.4959 29.1411 23.4959C28.6617 23.468 28.371 23.1216 28.371 22.6732ZM9.73386 22.6732V21.399H9.17716V21.7175C8.99159 21.4794 8.72561 21.3464 8.37922 21.3464C7.66169 21.3464 7.10499 21.9031 7.10499 22.6732C7.10499 23.4433 7.66169 24 8.37922 24C8.75035 24 9.01633 23.867 9.17716 23.6289V23.9474H9.73386V22.6732ZM7.66478 22.6732C7.66478 22.2216 7.95551 21.8505 8.43489 21.8505C8.88643 21.8505 9.20499 22.1969 9.20499 22.6732C9.20499 23.1247 8.88643 23.4959 8.43489 23.4959C7.95551 23.468 7.66478 23.1216 7.66478 22.6732Z"
            fill="#A0A1A3"
        ></path>
        <circle opacity="0.9" cx="10.5" cy="8.5" r="8.5" fill="#B4B5B8"></circle>
        <circle opacity="0.6" cx="21.5" cy="8.5" r="8.5" fill="#B4B5B8"></circle>
</svg>