<svg xmlns="http://www.w3.org/2000/svg" viewBox="0 0 16 16" width="16" height="16" fill="none" data-testid="icon" class=""><path d="M8.96856 10.3967C8.94506 10.3734 8.91334 10.3604 8.88027 10.3604C8.84721 10.3604 8.81549 10.3734 8.79199 10.3967L6.97637 12.2123C6.13574 13.0529 4.71699 13.142 3.78887 12.2123C2.85918 11.2826 2.94824 9.86543 3.78887 9.02481L5.60449 7.20918C5.65293 7.16074 5.65293 7.08106 5.60449 7.03262L4.98262 6.41074C4.95912 6.38748 4.9274 6.37443 4.89434 6.37443C4.86127 6.37443 4.82955 6.38748 4.80606 6.41074L2.99043 8.22637C1.66855 9.54824 1.66855 11.6873 2.99043 13.0076C4.3123 14.3279 6.45137 14.3295 7.77168 13.0076L9.58731 11.192C9.63574 11.1436 9.63574 11.0639 9.58731 11.0154L8.96856 10.3967ZM13.0092 2.99043C11.6873 1.66855 9.54824 1.66855 8.22793 2.99043L6.41074 4.80606C6.38748 4.82955 6.37443 4.86127 6.37443 4.89434C6.37443 4.9274 6.38748 4.95912 6.41074 4.98262L7.03106 5.60293C7.07949 5.65137 7.15918 5.65137 7.20762 5.60293L9.02324 3.7873C9.86387 2.94668 11.2826 2.85762 12.2107 3.7873C13.1404 4.71699 13.0514 6.13418 12.2107 6.97481L10.3951 8.79043C10.3719 8.81392 10.3588 8.84565 10.3588 8.87871C10.3588 8.91177 10.3719 8.9435 10.3951 8.96699L11.017 9.58887C11.0654 9.63731 11.1451 9.63731 11.1936 9.58887L13.0092 7.77324C14.3295 6.45137 14.3295 4.3123 13.0092 2.99043ZM9.53262 5.81699C9.50912 5.79373 9.4774 5.78068 9.44434 5.78068C9.41128 5.78068 9.37955 5.79373 9.35606 5.81699L5.81699 9.35449C5.79373 9.37799 5.78068 9.40971 5.78068 9.44277C5.78068 9.47584 5.79373 9.50756 5.81699 9.53106L6.43574 10.1498C6.48418 10.1982 6.56387 10.1982 6.61231 10.1498L10.1498 6.61231C10.1982 6.56387 10.1982 6.48418 10.1498 6.43574L9.53262 5.81699Z" fill="currentColor"></path></svg>