<svg width="64" height="53" fill="none" xmlns="http://www.w3.org/2000/svg"><path fill-rule="evenodd" clip-rule="evenodd" d="M1.2 2.1c0-.5.4-.9.9-.9h59.14c.5 0 .9.4.9.9v40.5c0 .5-.4.9-.9.9H50.9v-6.18a9.92 9.92 0 1 0-13.63 0v6.18H2.1a.9.9 0 0 1-.9-.9V2.1Zm36.08 42.6H2.1A2.1 2.1 0 0 1 0 42.6V2.1C0 .94.94 0 2.1 0h59.14c1.16 0 2.1.94 2.1 2.1v40.5a2.1 2.1 0 0 1-2.1 2.1H50.9v6.68a.8.8 0 0 1-1.37.56L44.1 46.5l-5.45 5.45a.8.8 0 0 1-1.37-.57V44.7Zm1.2-6.4V50.4l4.84-4.83a1.1 1.1 0 0 1 1.55 0l4.84 4.83V38.3a9.87 9.87 0 0 1-11.23 0Zm-27.6-24.5c0-.33.26-.6.6-.6h40.38a.6.6 0 1 1 0 1.2H11.47a.6.6 0 0 1-.6-.6Zm0 9.32c0-.33.26-.6.6-.6H30.1a.6.6 0 0 1 0 1.2H11.47a.6.6 0 0 1-.6-.6ZM44.1 21.4a8.72 8.72 0 1 0 0 17.44 8.72 8.72 0 0 0 0-17.44Z" fill="#ABAEB3"/></svg>