<svg xmlns="http://www.w3.org/2000/svg" width="24" height="24" viewBox="0 0 24 24" fill="none"><path fill="currentColor" fill-rule="evenodd" clip-rule="evenodd" d="M21.55 7.27c-.29.2-.62.32-.95.42l-4.28 1.27-.24.08c-.2.07-.4.14-.6.13-.2 0-.4-.1-.54-.25a.77.77 0 0 1-.2-.56c.02-.2.11-.4.2-.58l.11-.23 1.72-4.12c.13-.32.28-.64.51-.9.42-.48.92-.66 1.57-.43l.33.12c.89.32 2.65 2.28 2.87 3.2l.09.33c.16.68-.07 1.15-.6 1.52ZM8.75 5.51a3.14 3.14 0 0 1-.33-.98c-.07-.63.12-1.13.74-1.45l.3-.17c.83-.44 3.46-.44 4.3 0l.3.17c.62.32.81.82.74 1.45-.04.35-.18.67-.33.98l-1.91 4.04-.1.22c-.08.2-.16.4-.3.54a.77.77 0 0 1-.55.24c-.2 0-.4-.09-.55-.24a1.58 1.58 0 0 1-.3-.54l-.1-.22L8.75 5.5ZM6.88 18.03c-.23.25-.46.52-.6.84-.25.59-.2 1.12.29 1.6l.24.25c.67.67 3.18 1.44 4.11 1.25l.34-.07c.68-.13 1.01-.55 1.13-1.17.06-.35.02-.7-.03-1.04l-.66-4.41a4.07 4.07 0 0 1-.03-.25c-.02-.21-.03-.42-.13-.6a.77.77 0 0 0-.45-.39.76.76 0 0 0-.6.07c-.18.1-.31.26-.44.42l-.16.2-3 3.3ZM3.36 10.6c.3.16.65.23 1 .28l4.4.67.25.05c.2.05.41.09.62.05.2-.03.38-.15.5-.32a.77.77 0 0 0 .11-.58c-.04-.2-.16-.38-.27-.55l-.14-.21-2.26-3.85c-.18-.3-.37-.6-.63-.82-.49-.42-1-.53-1.62-.2l-.3.15C4.17 5.71 2.7 7.9 2.6 8.83l-.03.34c-.07.7.22 1.13.79 1.43Zm9.92 8.94c.06.34.14.68.3.99.32.55.77.84 1.46.75l.34-.05c.94-.13 3.07-1.66 3.48-2.51l.15-.31c.31-.63.18-1.14-.25-1.62a3.14 3.14 0 0 0-.84-.6l-3.91-2.15-.22-.13a1.58 1.58 0 0 0-.56-.26.77.77 0 0 0-.58.13.77.77 0 0 0-.3.51c-.03.2.02.41.07.62l.05.24.8 4.39Zm-7.95-1.58c.31-.16.57-.4.81-.64l3.16-3.16.18-.17c.16-.14.32-.28.4-.46.1-.19.11-.4.04-.6a.77.77 0 0 0-.4-.43c-.19-.1-.4-.1-.6-.1l-.26-.02-4.44-.45c-.34-.04-.7-.06-1.03.02-.62.14-1.02.5-1.13 1.18l-.05.34c-.14.94.74 3.41 1.44 4.05l.26.23c.52.47 1.04.49 1.62.2Zm13.02-2.6c.31.16.63.3.98.35.63.1 1.13-.09 1.47-.7l.17-.3c.47-.82.53-3.45.1-4.3l-.15-.3c-.31-.62-.8-.83-1.43-.77-.35.03-.68.16-1 .3l-4.07 1.82-.23.09c-.2.07-.4.15-.55.29a.77.77 0 0 0-.25.54c0 .2.08.4.22.55.15.15.34.23.53.32l.23.1 3.98 2.01Z"></path></svg>