<svg xmlns="http://www.w3.org/2000/svg" viewBox="0 0 24 24" width="24" height="24" fill="none" data-testid="icon" class=""><path xmlns="http://www.w3.org/2000/svg" fill-rule="evenodd" clip-rule="evenodd" d="M12.8 6.99995C12.8 6.55812 12.4418 6.19995 12 6.19995C11.5581 6.19995 11.2 6.55812 11.2 6.99995V11.2H6.99995C6.55812 11.2 6.19995 11.5581 6.19995 12C6.19995 12.4418 6.55812 12.8 6.99995 12.8H11.2V17C11.2 17.4418 11.5581 17.8 12 17.8C12.4418 17.8 12.8 17.4418 12.8 17V12.8H17C17.4418 12.8 17.8 12.4418 17.8 12C17.8 11.5581 17.4418 11.2 17 11.2H12.8V6.99995Z" fill="currentColor"></path></svg>