<svg xmlns="http://www.w3.org/2000/svg" width="24" height="24" viewBox="0 0 24 24" fill="none"><path fill="currentColor" fill-rule="evenodd" clip-rule="evenodd" d="M8.25 11.5a3.25 3.25 0 1 0 0-6.5 3.25 3.25 0 0 0 0 6.5Zm0-1.4a1.85 1.85 0 1 0 0-3.7 1.85 1.85 0 0 0 0 3.7ZM15.75 19a3.25 3.25 0 1 0 0-6.5 3.25 3.25 0 0 0 0 6.5Zm0-1.4a1.85 1.85 0 1 0 0-3.7 1.85 1.85 0 0 0 0 3.7Z"></path><path fill="currentColor" fill-rule="evenodd" clip-rule="evenodd" d="M16.55 7.44a.7.7 0 1 0-1.1-.88l-8 10a.7.7 0 0 0 1.1.88l8-10Z"></path></svg>