<svg width="24" height="24" viewBox="0 0 24 24" fill="none" xmlns="http://www.w3.org/2000/svg">
<path fill-rule="evenodd" clip-rule="evenodd" d="M21 12C21 16.9706 16.9706 21 12 21C7.02944 21 3 16.9706 3 12C3 7.02944 7.02944 3 12 3C16.9706 3 21 7.02944 21 12ZM12.3225 9.64423C11.4471 10.0083 9.69757 10.7619 7.07389 11.905C6.64784 12.0745 6.42466 12.2402 6.40435 12.4023C6.37001 12.6762 6.713 12.784 7.18007 12.9309C7.24361 12.9509 7.30944 12.9716 7.37692 12.9935C7.83645 13.1429 8.45459 13.3176 8.77594 13.3246C9.06743 13.3309 9.39277 13.2107 9.75195 12.964C12.2033 11.3093 13.4688 10.4729 13.5482 10.4549C13.6042 10.4421 13.6819 10.4261 13.7345 10.4729C13.7872 10.5197 13.782 10.6083 13.7764 10.632C13.7424 10.7769 12.396 12.0286 11.6993 12.6764C11.4821 12.8783 11.328 13.0216 11.2965 13.0543C11.226 13.1275 11.1541 13.1969 11.085 13.2635C10.658 13.675 10.3379 13.9837 11.1027 14.4876C11.4702 14.7298 11.7643 14.9301 12.0577 15.1299C12.3781 15.3481 12.6977 15.5657 13.1112 15.8368C13.2165 15.9058 13.3171 15.9776 13.4151 16.0474C13.788 16.3133 14.123 16.5521 14.5369 16.514C14.7774 16.4919 15.0258 16.2657 15.152 15.5913C15.4501 13.9974 16.0362 10.5439 16.1716 9.12076C16.1835 8.99608 16.1686 8.83651 16.1566 8.76646C16.1446 8.69641 16.1195 8.59661 16.0285 8.52273C15.9207 8.43523 15.7542 8.41678 15.6797 8.41809C15.3412 8.42406 14.8219 8.60464 12.3225 9.64423Z" fill="currentColor"/>
</svg>
