<svg width="24" height="24" viewBox="0 0 24 24" fill="none" xmlns="http://www.w3.org/2000/svg">
<path fill-rule="evenodd" clip-rule="evenodd" d="M19.1505 4.76037C18.7017 4.35884 16.9067 3.03618 12.8678 3.01256C12.8678 3.01256 8.1204 2.72913 5.80574 4.85484C4.50669 6.15388 4.05793 8.01979 4.01069 10.3581C3.96345 12.6963 3.8926 17.0659 8.1204 18.2704V20.0891C8.1204 20.0891 8.09678 20.8213 8.56916 20.963C9.04908 21.1166 9.35737 20.7709 9.76033 20.319C9.85316 20.2149 9.95102 20.1052 10.0572 19.9946C10.3642 19.6639 10.7893 19.1916 11.0964 18.8137C13.9779 19.0499 16.1981 18.5066 16.4579 18.4121C16.5097 18.3955 16.5823 18.3771 16.672 18.3544L16.6721 18.3544L16.6721 18.3544C17.6038 18.1181 20.3791 17.4143 20.8747 13.4285C21.4415 8.89369 20.6385 6.03579 19.1505 4.76037ZM19.6465 13.0743C19.2374 16.4113 16.9836 16.9028 16.2124 17.071C16.1375 17.0873 16.0766 17.1006 16.0328 17.1131C15.8202 17.184 13.8834 17.6563 11.4271 17.5146C11.4271 17.5146 9.6084 19.7112 9.01792 20.3017C8.92345 20.3961 8.82897 20.4198 8.75811 20.4198C8.66364 20.3961 8.64002 20.278 8.64002 20.1127C8.64002 19.8765 8.66364 17.0895 8.66364 17.0895C5.2315 16.0589 5.29147 12.7513 5.32798 10.7374C5.33007 10.6222 5.33208 10.5113 5.33336 10.4053C5.3806 8.44493 5.73488 6.86245 6.82136 5.77598C8.78173 4.00456 12.8206 4.26437 12.8206 4.26437C16.2217 4.28798 17.8514 5.3036 18.2293 5.65788C19.4575 6.74436 20.0952 9.31883 19.6465 13.0743ZM12.924 8.83416C12.9308 8.70866 13.0381 8.61242 13.1636 8.61921C13.6387 8.64489 14.0312 8.78851 14.3102 9.07836C14.5879 9.36688 14.7231 9.76926 14.7485 10.2517C14.7551 10.3772 14.6587 10.4843 14.5332 10.4909C14.4077 10.4975 14.3006 10.4011 14.294 10.2756C14.2721 9.86046 14.1593 9.57786 13.9823 9.39398C13.8066 9.21144 13.5378 9.09524 13.139 9.07368C13.0135 9.0669 12.9173 8.95966 12.924 8.83416ZM12.8621 7.3914C12.7368 7.38151 12.6272 7.47506 12.6173 7.60036C12.6074 7.72565 12.701 7.83524 12.8262 7.84513C13.6792 7.91247 14.3293 8.20101 14.802 8.71666C15.2552 9.21304 15.4967 9.86292 15.4747 10.6351C15.4711 10.7607 15.57 10.8655 15.6957 10.8691C15.8213 10.8727 15.926 10.7737 15.9296 10.6481C15.9548 9.76699 15.6768 8.99974 15.138 8.40962L15.1377 8.40929C14.5712 7.7913 13.8041 7.46577 12.8621 7.3914ZM12.1678 6.46094C12.1678 6.33526 12.2697 6.23337 12.3954 6.23337C13.7268 6.23337 14.8476 6.67939 15.7427 7.54962C16.6444 8.42621 17.1108 9.62267 17.1108 11.1141C17.1108 11.2397 17.0089 11.3416 16.8832 11.3416C16.7575 11.3416 16.6556 11.2397 16.6556 11.1141C16.6556 9.72382 16.2245 8.65277 15.4255 7.87596C14.6199 7.0928 13.6149 6.68851 12.3954 6.68851C12.2697 6.68851 12.1678 6.58662 12.1678 6.46094ZM13.6944 13.1215C13.5291 13.3341 13.1984 13.3105 13.1984 13.3105C10.8601 12.6964 10.2697 10.3581 10.2697 10.3581C10.2697 10.3581 10.2461 10.0274 10.4586 9.86208L10.8838 9.53141C11.0727 9.36608 11.2144 8.96456 11.0019 8.58665C10.9491 8.50752 10.8832 8.40546 10.8128 8.29634C10.6941 8.11235 10.5624 7.90825 10.4586 7.75999C10.2697 7.50018 9.84453 6.98056 9.84453 6.98056C9.63196 6.72075 9.32491 6.67351 8.99424 6.83884C8.6872 7.02779 8.40377 7.26398 8.14396 7.54741C7.93139 7.7836 7.81329 8.01979 7.78967 8.25598V8.35046C7.78967 8.46855 7.81329 8.56301 7.83691 8.65748L7.83691 8.65751C7.93139 9.03541 8.1912 9.62588 8.73443 10.6179C9.08872 11.2556 9.46662 11.7988 9.82091 12.2476C10.0099 12.4838 10.2224 12.72 10.4822 12.9798L10.5767 13.0743C10.8129 13.3341 11.0727 13.5466 11.3089 13.7356C11.7577 14.0899 12.3009 14.4678 12.9386 14.8221C13.9542 15.3653 14.5447 15.6251 14.899 15.7196C14.9935 15.7432 15.1116 15.7668 15.206 15.7668H15.3005C15.5367 15.7196 15.7729 15.6251 16.0091 15.4125C16.3161 15.1527 16.5523 14.8693 16.7177 14.5623C16.883 14.2316 16.8357 13.9245 16.5759 13.712C16.5759 13.712 16.0563 13.2868 15.7965 13.0979C15.5603 12.9089 15.1824 12.6727 14.9699 12.5546C14.5683 12.3421 14.1904 12.4838 14.0251 12.6964L13.6944 13.1215Z" fill="currentColor"/>
</svg>
