<svg xmlns="http://www.w3.org/2000/svg" width="24" height="24" viewBox="0 0 24 24" fill="none"><path fill-rule="evenodd" clip-rule="evenodd" d="M17.3 4.11c.18.13.29.33.29.55v3.39a2.2 2.2 0 0 1 1.53 2.09v7.67A2.2 2.2 0 0 1 16.93 20H7.07a2.2 2.2 0 0 1-2.2-2.2v-7.66a2.2 2.2 0 0 1 1.78-2.16.66.66 0 0 1 .18-.1l9.86-3.84c.2-.07.43-.05.61.07Zm-1.03 1.5v2.34H10.3l5.98-2.33Zm.66 3.65H7.07c-.49 0-.88.4-.88.88v7.67c0 .48.4.87.88.87h9.86c.49 0 .88-.39.88-.87v-7.67c0-.49-.4-.88-.88-.88Zm-.55 4.71a1.1 1.1 0 1 1-2.19 0 1.1 1.1 0 0 1 2.2 0Z" fill="currentColor"></path><path d="m17.3 4.11.06-.08-.06.08Zm.28 3.93-.1-.01v.08l.07.03.03-.1ZM6.65 7.98l.02.1h.03l.01-.02-.06-.08Zm.18-.1.04.1-.04-.1Zm9.86-3.84.04.1-.04-.1Zm-.42 3.9v.1h.1v-.1h-.1Zm0-2.32h.1v-.15l-.13.06.03.09ZM10.3 7.95l-.03-.1.03.2v-.1ZM7.07 9.26v-.1.1Zm9.86 0v.1-.1Zm-9.86 9.42v.1-.1Zm9.86 0v-.1.1Zm.76-14.02a.76.76 0 0 0-.33-.63l-.11.17c.15.1.24.27.24.46h.2Zm0 3.29v-3.3h-.2v3.3h.2Zm0 .1v-.1h-.2v.08l.2.03Zm1.53 2.09a2.3 2.3 0 0 0-1.6-2.2l-.07.2a2.1 2.1 0 0 1 1.47 2h.2Zm0 7.67v-7.67h-.2v7.67h.2Zm-2.29 2.29a2.3 2.3 0 0 0 2.3-2.3h-.2a2.1 2.1 0 0 1-2.1 2.1v.2Zm-9.86 0h9.86v-.2H7.07v.2Zm-2.3-2.3a2.3 2.3 0 0 0 2.3 2.3v-.2a2.1 2.1 0 0 1-2.1-2.1h-.2Zm0-7.66v7.67h.2v-7.67h-.2Zm1.86-2.25a2.3 2.3 0 0 0-1.85 2.25h.2a2.1 2.1 0 0 1 1.69-2.06l-.04-.2Zm.16-.1a.76.76 0 0 0-.2.12l.12.15.16-.09-.08-.18Zm9.87-3.84L6.79 7.8l.08.18 9.86-3.83-.07-.19Zm.7.08a.76.76 0 0 0-.7-.08l.07.19a.56.56 0 0 1 .52.06l.11-.17Zm-.99 3.92V5.62h-.2v2.33h.2Zm-6.08.1h5.98v-.2H10.3v.2Zm5.95-2.52-5.98 2.32.07.19L16.3 5.7l-.07-.18ZM7.07 9.36h9.86v-.2H7.07v.2Zm-.78.78c0-.43.35-.78.78-.78v-.2a.98.98 0 0 0-.98.98h.2Zm0 7.67v-7.67h-.2v7.67h.2Zm.78.77a.78.78 0 0 1-.78-.77h-.2c0 .54.44.97.98.97v-.2Zm9.86 0H7.07v.2h9.86v-.2Zm.78-.77c0 .43-.35.77-.78.77v.2c.54 0 .98-.43.98-.97h-.2Zm0-7.67v7.67h.2v-7.67h-.2Zm-.78-.78c.43 0 .78.35.78.78h.2a.98.98 0 0 0-.98-.98v.2Zm-1.64 5.8c.66 0 1.2-.53 1.2-1.19h-.2a1 1 0 0 1-1 1v.2Zm-1.2-1.19c0 .66.54 1.2 1.2 1.2v-.2a1 1 0 0 1-1-1h-.2Zm1.2-1.2c-.66 0-1.2.54-1.2 1.2h.2a1 1 0 0 1 1-1v-.2Zm1.2 1.2c0-.66-.54-1.2-1.2-1.2v.2a1 1 0 0 1 1 1h.2Z" fill="currentColor"></path></svg>